<?xml version="1.0" encoding="utf-8"?>
<!-- Generator: Adobe Illustrator 18.0.0, SVG Export Plug-In . SVG Version: 6.00 Build 0)  -->
<!DOCTYPE svg PUBLIC "-//W3C//DTD SVG 1.1//EN" "http://www.w3.org/Graphics/SVG/1.1/DTD/svg11.dtd">
<svg version="1.1"  xmlns="http://www.w3.org/2000/svg" xmlns:xlink="http://www.w3.org/1999/xlink" x="0px" y="0px"
	 viewBox="0 0 583.1 165.6" enable-background="new 0 0 583.1 165.6" xml:space="preserve">
<g>
	<path fill="#DD1F26" d="M101.5,65.9l-0.1-2.1c-0.2-6.2,0.1-12.4,0.9-18.5l1,0.1c-0.7,5.3-1,10.7-0.9,16.1c4-9.8,6.2-20.4,6.4-31
		c-3.6,4-7.4,7.7-11.4,11.2L96.6,41c0.3-0.3,0.5-0.6,0.8-1l-0.8,0.3c-3.7-8.4-7.4-17-10.8-25.6c-1.4-2.3-2.7-4.7-3-7.2
		c-0.7,1.2-1.7,2.3-2.6,3.4c-0.3,0.3-0.6,0.7-0.9,1c-0.3,0.4-0.6,0.8-0.9,1.1c-0.2,0.3-0.5,0.7-0.7,1c-1.1,1.7-1.9,3.6-2.6,5.4
		c-1,2.4-1.9,4.9-2.7,7.4c-0.1,3.5,0.7,7,1.3,10.2l0.2,1l-0.9-0.5C72,37,71,36.4,69.9,35.7c0,0.1-0.1,0.2-0.1,0.3l2,2l-0.6,0.7
		l-1.8-1.3L69,39.3L68.9,37L52.3,24.6l0.6-0.8l11.8,8.8l0.2-0.3l-2.6-2.6c-1.1-1-2.1-2.1-3.2-3.2l0.7-0.7l3.1,3.1
		c0.8,0.8,1.7,1.5,2.6,2.2l8.1-12.7c0.8-1.5,1.8-3,2.8-4.4l8.9-13.9l-1.5,4l0.3,0.1C84,4.7,84,5,83.9,5.3c-0.1,0.5-0.1,1.1-0.1,1.6
		c1.3,0.7,2.3,1.7,3.1,2.9l1.6-0.3l0.1,0.4c2.7,7.2,5.8,14.3,9.1,21.2l-0.8,0.5l-8.3-12.6c2.5,6.2,5.1,12.4,7.8,18.4
		c0.3-2.7,2-5.2,4-6.7c2.8-2.3,6.4-3.3,9.6-4.2l1.9-0.6l-1.3,1.3c0,0,0.1,0,0.1,0l1.2-0.1l-0.8,0.9c-0.4,0.5-0.8,0.9-1.2,1.4
		c-0.1,0.4-0.1,0.9-0.1,1c-0.1,11.5-2.7,23.1-7.3,33.6L101.5,65.9z M108.4,27.9c-2.6,0.8-5.3,1.8-7.4,3.5c-2.4,1.9-4.3,5.3-3.4,8.5
		C101,35.8,104.5,31.7,108.4,27.9z M70.2,34.7c0.8,0.5,1.7,1,2.5,1.5c-0.4-2.1-0.9-4.4-1-6.6C71.1,31.3,70.6,33,70.2,34.7z
		 M109,28.6c-2.2,2.3-4.4,4.6-6.5,7c2.2-2.2,4.4-4.4,6.4-6.8C108.9,28.8,108.9,28.7,109,28.6z M65.4,33.2l1,0.7l-0.9-0.9
		C65.5,33.1,65.5,33.2,65.4,33.2z M66.3,32c0.8,0.6,1.6,1.2,2.4,1.8c0-1.8,0.3-3.5,0.6-5.2C68.3,29.6,67.3,30.8,66.3,32z M71.1,25.7
		l-0.4,1.6c-0.4,1.6-0.7,3.3-0.9,5c0.5-1.8,1.1-3.7,1.7-5.5c0-1.2,0.2-2.5,0.4-3.7l-2.9,4.5c0.3-0.3,0.6-0.5,0.8-0.8L71.1,25.7z
		 M86.7,14.3c0.3,0.4,0.5,0.8,0.8,1.2l6.4,9.8c-2.2-4.8-4.2-9.8-6.1-14.7L86.4,11l-0.2-0.3c-0.4-0.8-1-1.5-1.7-2.1
		C85.2,10.5,86,12.4,86.7,14.3z"/>
	<path fill="#DD1F26" d="M84.6,165.6l-0.5-0.3c-1.8-1.1-3.6-2.2-5.4-3.2l0,0l-0.2-0.1v-0.1l-0.9-0.5l0.9-0.1
		c0-10.6,0.4-14.2,1.3-21.5c0.3-2.2,0.6-4.8,0.9-8c-5.2,1-11.3,1.7-17.2,0.2l-13.4,0.6c-4.4,0.2-6.9,1.3-7.6,3.4l-1.5,4.2l1.5-13
		l1.1,3.3c1.2-4.6-0.5-9.9-4.4-12.9c-1.2-0.9-2.6-1.6-4-2.3c-0.9-0.4-1.8-0.9-2.7-1.4c-2.3-1.4-4.3-3.2-6.3-5L4.7,89.3
		c-0.7,0-1.4,0-2,0l-0.1-1c0.3-0.1,0.7-0.1,1-0.2L0,85l0.7-0.3c3.2-1.2,6.6-1.6,10-1.3l1.4,0.1L11,84.2c-0.5,0.4-0.9,1-1,1.7
		c0.4,0,0.8,0,1.2,0c1.5-0.1,3.1-0.1,4.6-0.1c-0.1-0.5-0.2-1-0.2-1.5c0,0.4,0.1,0.9,0.1,1.3l-1,0.1c-1.1-6.4-2.7-12.8-4.7-19
		c-0.1-0.2-0.2-0.3-0.2-0.5c-0.6-1.3-1.3-2.6-2-3.9l0.7-0.4c-0.3-0.9-0.6-1.8-1-2.7c-1-0.5-1.9-1.2-2.2-2C4.9,56.6,5,56,5.4,55.4
		l0.2-0.3l0.3,0.1c6.3,2,12.6,3.8,19.1,5.4c2.7,0.1,5.4,0.1,8.1,0c-1.2-1.1-2.4-2.3-3.5-3.4l-0.7-0.6l0.9-0.2
		c3.1-0.6,6.4,1.3,7.5,4.3l0.2,0.6l-0.6,0.1c-0.5,0-0.9,0.1-1.4,0.1c2.4,2.2,4.9,4.3,7.6,6.3c0.4,0,0.8,0.1,1.2,0.2
		c-5.2-4.9-9-11.3-10.8-18.3l-0.8-3.1l1.7,2.7c2.9,4.7,5.9,9.6,9.6,13.8c2,2.4,4.3,4.6,6.6,6.7c0.6-0.1,1.2-0.2,1.8-0.3
		c2.6-0.3,5.3-0.2,8,0.2l-3.6-28.4c-1.7-4.9-3.7-9.8-6-14.5l0.9-0.4c1.7,3.5,3.2,7,4.6,10.6l-1.1-8.7l1-0.1
		c0.8,5.5,1.7,11.1,2.9,16.5c2.8,8.7,5,17.6,7.1,26.4c1.2,0.4,2.3,0.9,3.4,1.4c-1.8-4.4-2-8.8-0.6-12.6c-0.2-0.3-0.4-0.6-0.6-0.9
		c-1.4-2.1-2.4-4.4-3.1-6.7c-0.8-1.8-1.6-3.5-3.2-4.1L60,47.5l2-0.2c0.7-0.1,1.4-0.1,2.1-0.1c-0.4-4,0.2-8,1.7-11.7
		c1.8-4.4,4.7-7.9,8.3-9.9c1.4-0.8,2.9-1.3,4.4-1.6c0.1-3.6,0.7-7.2,2-10.5l0.3-0.7l0.5,0.6c2.9,3.2,4.9,7.3,5.6,11.5l3.4,6.9
		c0.4,0.8,0.9,1.8,0.9,2.9c0,0.6-0.2,1.1-0.4,1.5c1.8,4.2,4,8.2,6.6,12c0.4,0.2,0.9,0.4,1.3,0.6c0.6-4.3,1.6-8.6,2.9-12.7l0.6-1.8
		l0.4,1.8c0.3,1.5,1.1,2.9,1.9,4.3c0.6,1.1,1.3,2.2,1.7,3.4c0.6,1.9,0.4,4.2-0.7,5.8c-0.7,1-1.7,1.6-2.8,1.6c-1.1,0.1-2.2-0.5-3.2-1
		c0,0.3-0.1,0.6-0.1,0.8l-0.1,1.2l-0.3-0.4c1.4,3.1,2,6.7,1.6,10.1l0,0.1l6.5,9.1c2.3,0.4,4.5,1.2,5.8,3.2c5.7-8,12-15.6,18.8-22.6
		l0.4-0.4l0.3,0.5c1.4,2.1,1,4.8,0,6.9l0.1,0.4l11,0.9c6-1,11.8-2.6,17.4-4.9l3.9-1.6l-3.4,2.4c-2.5,1.8-5.1,3.4-7.8,4.9l2.7,0.2
		l-0.5,0.7c-5.9,8.5-4.5,21.4,2.8,28.7c0.5,0.5,1,0.9,1.5,1.3l-0.6,0.7c-0.6-0.5-1.2-1-1.7-1.6c-3.3-3.2-5.9-7-8.2-10.9
		c1.6,3.3,3.3,6.6,5.2,9.8l0.1,0l0,0.1c0.7,1.1,1.4,2.2,2.1,3.4l0.4,0.6l-0.7,0.1c-0.9,0.1-1.9-0.3-2.5-1.1
		c-0.5-0.6-0.7-1.2-0.6-1.9c-1.7,0.3-3.3,0.7-5,1.1c-0.1,0.9-0.4,1.7-0.9,2.4c2.3-0.7,4.5-0.5,6.4,0.5l0.4,0.2l-0.2,0.4
		c-3.2,5.9-10.2,8.4-16.3,10.6l-0.8,0.3c-1.7,0.6-3.3,1.3-4.7,1.9c-1.3,1.6-2.5,3.2-3.5,5c0,0,0,0.1,0,0.1c0,0.3-0.1,0.8-0.4,1
		c-0.2,0.1-0.5,0.1-0.8-0.1l-0.3-0.3l0.1-0.2c0,0-0.1,0.1-0.1,0.1c-0.1,0.2-0.3,0.3-0.4,0.5l-0.2,0.6c-0.4,1.1-1,2.6-2.1,3.5
		c-0.1,0.1-0.3,0.2-0.4,0.3c-2.3,4.7-3.1,10.2-2.1,15.4l0.2,1.2l-1-0.7c-3-2-6.4-3.2-9.9-4c-4.1,3.3-10.6,1.8-15-1.8l-13.4-1.2
		c0.2,0.6,0.3,1.2,0.4,1.8l0.9,0.2c-0.2,1.1-0.3,2-0.5,2.8l0.5,0.1c-0.1,2.8-0.3,4.7-0.4,6.3c0.1,3.4,0.7,6.1,1.3,8.7
		c1,4.3,1.9,8.4,0.2,15.2l1.4,1.3l-1.6-0.5c-0.1,0.3-0.2,0.6-0.3,0.9L84.6,165.6z M82.6,163.3c0.5,0.3,0.9,0.6,1.4,0.8
		c0-0.1,0.1-0.2,0.1-0.4L82.6,163.3z M83.3,161.9c0.4,0.2,0.8,0.4,1.1,0.7c1.5-6.2,0.6-10.1-0.4-14.2c-0.3-1.4-0.6-2.8-0.9-4.3
		c-0.2,1.8-0.5,4.1-0.7,8.4l-0.8,0c0.1,0.5,0.2,1,0.3,1.5c0.4,1.9,0.8,4.3,1.3,7.5L83.3,161.9z M79.8,161c0.8,0,1.5,0.1,2.2,0.3
		c-1.8-2.7-2.4-5.8-2.6-9c-0.1,2.4-0.2,5.1-0.2,8.7C79.5,161,79.7,161,79.8,161z M80.4,150.8c0,2.9,0.3,5.8,1.5,8.3
		c-0.3-1.9-0.6-3.5-0.9-4.9C80.8,152.9,80.6,151.8,80.4,150.8z M81,146c0,1.6,0.1,3.1,0.3,4.6C81.2,148.8,81.1,147.3,81,146z
		 M82.8,137.1c-0.7,3.4-1,5.3-0.8,8.8c0.1-1.3,0.3-2.3,0.4-3.2c0.1-1,0.3-2,0.4-3.3C82.8,138.7,82.8,137.9,82.8,137.1z M81.6,130.6
		l-0.1,0.6c-0.4,3.4-0.7,6.1-0.9,8.5c0.2-0.9,0.5-1.5,0.7-2.2c0.1-0.4,0.2-0.7,0.3-1.1l0.2-0.7c0.4-1.5,0.7-3,0.7-4.5
		c0-1-0.3-1.9-0.6-2.9l-10.7-0.9c-0.2,0-0.4,0-0.6-0.1c1.5,1.2,2.9,2.3,4.5,3.4l1.1,0.8c1.7-0.2,3.3-0.5,4.8-0.8L81.6,130.6z
		 M112.2,130.6c3,0.7,5.9,1.8,8.6,3.4c-0.7-4.7,0-9.6,1.9-14c-0.8,0.2-1.7,0.3-2.4,0.3c-1.3,0.1-2.7,0.2-4,0.1
		c-0.4,0.8-0.9,1.4-1.4,1.9C114.9,125.8,114,128.7,112.2,130.6z M42.8,131.7l-0.3,2.2c0.2-0.2,0.5-0.4,0.8-0.6L42.8,131.7z
		 M36.2,114.8c1.2,0.6,2.3,1.2,3.4,2c4.5,3.5,6.4,10.1,4.2,15.4l-0.4,0.9c2.2-1.3,5.1-1.5,6.4-1.5l0.6,0l0.6-3.6
		c0.2-1.1,0.4-2.1,0.6-3.2c-1-1.3-1.8-2.8-2.3-4.4l-3.8-4.4l-1.2,2.7l-0.2-1.7c-0.1-1-0.3-2.1-0.4-3.1l-12-13.6
		c-0.6-0.7-1.2-1.4-1.8-2.1c1.9,5.6,4.3,11,7,16.3L36.2,114.8z M98.2,129.7c3.7,2.4,8.5,3.4,11.8,1.4c-3.2-0.6-6.5-0.9-9.7-1.2
		L98.2,129.7z M68.7,131.8c2.5,0.1,5,0,7.3-0.3L68.7,131.8z M53.6,126.8c-0.7,0.3-1.3,0.7-1.6,1.4l-1.5,3.3l10-0.4
		C57.9,130.1,55.5,128.6,53.6,126.8z M54.7,126.5c2.3,2,5.2,3.6,8.5,4.4c0.1,0,0.2,0,0.3,0.1l9.9-0.4c-3.6-2.6-7-5.5-10.2-8.6
		c-0.2-0.2-0.4-0.4-0.6-0.5c-1,1.8-2.2,3.4-4,4.2c-0.8,0.3-1.8,0.5-2.7,0.7C55.5,126.4,55.1,126.4,54.7,126.5z M96.7,128.6l3.7,0.3
		c3.4,0.3,7.1,0.6,10.6,1.4c0.1-0.1,0.1-0.1,0.2-0.2c2-2,2.5-4.9,2.6-7c-1.9,1.2-4.2,1.1-6.4-0.1c-2.7-1.5-4.6-4.4-4.5-7.2
		c0-0.1,0-0.1,0-0.2c-1.4,3.1-3.4,6-5.8,8.4l0.1,0l-0.2,0.1c-0.4,0.5-0.9,0.9-1.4,1.3l-0.6-0.7c0,0,0,0,0,0
		c-0.5,0.2-1.1,0.3-1.6,0.5c1,1.1,2,2.2,3.1,3.2C96.6,128.5,96.7,128.6,96.7,128.6z M82.6,127.4l12.5,1.1c-1-0.9-1.9-1.9-2.7-3
		c0,0-0.1,0-0.1,0l-0.5,0.1l-0.1-0.5c0-0.2-0.1-0.5-0.1-0.7c-0.3-0.4-0.6-0.8-0.9-1.1c-3.5-1.3-7-3.1-10.4-5.6
		c-0.6,2.4,0.4,4.7,1.4,7.2C82,125.8,82.3,126.6,82.6,127.4z M79.2,118.2c-3.3,1.3-6.5,3-9.5,5c-0.6,0.4-1.2,0.9-1.3,1.5
		c-0.1,1.4,2.5,1.6,2.8,1.7l10.3,0.9c-0.2-0.6-0.5-1.3-0.8-1.9C79.8,123,78.8,120.6,79.2,118.2z M52.5,125.7c0,0.2-0.1,0.5-0.1,0.7
		c0.2-0.1,0.3-0.2,0.5-0.3C52.7,126,52.6,125.8,52.5,125.7z M52.8,124.5c0.3,0.4,0.7,0.8,1.1,1.2c0.6-0.2,1.2-0.3,1.8-0.4
		c0.9-0.2,1.7-0.3,2.5-0.6c1.7-0.7,2.8-2.2,3.7-4c-2-2-4-4.2-5.9-6.3C54.7,117.6,53.6,121,52.8,124.5z M63,120.5
		c0.3,0.3,0.5,0.5,0.8,0.8c1.2,1.2,2.4,2.3,3.7,3.4c0.1-1,0.9-1.7,1.7-2.3c3.2-2.2,6.6-3.9,10.2-5.3c-3.3-2.5-6.5-5.5-9.7-9.1
		c-0.7,0.5-1.4,1-2.1,1.6c-1.2,3.1-2.5,6.3-3.8,9.4C63.5,119.4,63.3,120,63,120.5z M92.5,124.1c0.1,0.1,0.2,0.2,0.3,0.3
		c0.2-0.1,0.4-0.1,0.6-0.2c-0.3-0.1-0.6-0.2-0.9-0.3C92.4,124,92.4,124,92.5,124.1z M92.2,122.9c1,0.3,2.1,0.6,3.1,0.9l0.6,0.1
		c3.7-3.6,6.4-8.3,7.7-13.2c-1.8,0.6-3.6,1.1-5.4,1.6c0.2,1.1,0.4,2.1,0.4,3.2c0.1,1.7-0.1,4.8-2.4,6.2c-1.2,0.7-2.6,0.8-4.3,0.3
		C92.1,122.3,92.2,122.6,92.2,122.9z M46,115l4.3,4.9c0.4,1.2,1,2.4,1.7,3.5c0.8-3.4,1.9-6.7,3.1-9.9c-0.6-0.7-1.3-1.4-1.9-2.1
		c-1.2-1.4-2.5-2.8-3.8-4.2L46,115z M105.4,111.1c-0.9,1.4-1.5,3-1.5,4.8c0,2.5,1.6,5,4,6.3c2,1.1,4,1.1,5.6,0
		c0.1-0.1,0.3-0.2,0.4-0.3c0-0.1,0-0.2,0-0.2c0-0.6-0.1-1.2-0.2-1.8c-0.8-0.3-1.6-0.7-2.2-1.4c-1.1-1-1.7-2.4-2.1-3.9l-3.6-3.5
		C105.6,111.1,105.5,111.1,105.4,111.1z M90.1,121.1c0.4,0.5,0.7,0.9,1.1,1.3c-0.1-0.3-0.1-0.6-0.2-0.9
		C90.7,121.4,90.4,121.3,90.1,121.1z M81.3,117.4c2.6,1.8,5.3,3.3,8,4.5c-0.6-0.7-1.2-1.5-1.9-2.2c-1.4-0.9-2.8-1.9-4-3
		C82.7,116.8,82,117.1,81.3,117.4z M91.8,120.9c1.6,0.6,3,0.6,4,0c1.9-1.1,2-3.8,1.9-5.3c-0.1-1-0.2-2-0.4-3c-1,0.3-2,0.6-3,0.8
		c-1.4,0.4-2.8,0.8-4.1,1.2C90.9,116.7,91.4,118.9,91.8,120.9z M114.6,120.1c0,0.3,0.1,0.6,0.1,0.8c0.2-0.2,0.3-0.5,0.5-0.7
		C115,120.2,114.8,120.2,114.6,120.1z M88.1,118.9c0.6,0.4,1.1,0.7,1.7,1c0.3,0.2,0.6,0.3,0.9,0.5c-0.4-2-0.9-3.9-1.5-5.6
		c-1.4,0.4-2.7,0.8-4.1,1.2C86.2,116.9,87.2,117.9,88.1,118.9z M56.3,113.4c2,2.2,3.9,4.3,6,6.4c0.2-0.4,0.4-0.8,0.5-1.2
		c1.1-2.6,2.1-5.2,3.2-7.8c-0.3,0.2-0.5,0.4-0.8,0.7l-2.2,1.9l1.5-2.5c1-1.8,2.1-3.5,3.2-5.2c-1.2-1.5-2.4-3-3.6-4.7l-1,1.2l0.2-1.6
		c0-0.2,0.1-0.4,0.1-0.6c-0.1-0.2-0.3-0.4-0.4-0.6c-1.4,1.9-2.4,4.1-3.4,6.4C58.4,108.1,57.3,110.7,56.3,113.4z M116.7,119.4
		c1.1,0.1,2.3,0,3.5-0.1c0.7,0,1.3-0.1,1.9-0.2l-0.7-0.2c0.1-0.5,0.3-1.1,0.5-1.6l3.4-11.5c-3-0.5-6.2-0.9-9.3-0.6
		c-0.3,0.2-0.7,0.4-1,0.6c1.4,2.6,2.3,5.5,2.5,8.4C117.5,116.2,117.3,118,116.7,119.4z M114.4,119.1c0.4,0.1,0.8,0.2,1.3,0.3
		c0.6-1.4,0.9-3.1,0.7-5c-0.2-2.8-1-5.5-2.4-8c-1.3,0.7-2.7,1.3-4,1.9c0,0.3,0,0.6-0.1,0.9c-0.1,0.9-0.1,1.7-0.1,2.6
		C112.1,113.4,113.7,116.1,114.4,119.1z M122.8,117.7l-0.4,1.4c0.3-0.1,0.7-0.2,0.9-0.3c0.7-1.4,1.6-2.8,2.6-4.1l0.9-2.3
		C124.9,113.9,123.5,115.7,122.8,117.7z M110,113.1c0.2,1.8,0.7,3.5,2,4.6c0.4,0.4,0.8,0.7,1.3,0.9
		C112.6,116.5,111.5,114.5,110,113.1z M81.8,115.1c-0.4,0.4-0.8,0.9-1.1,1.4c0.6-0.2,1.3-0.5,1.9-0.7
		C82.3,115.6,82.1,115.4,81.8,115.1z M70.4,107.4c3,3.5,6.2,6.4,9.4,8.8c0.3-0.7,0.8-1.3,1.3-1.8c-2-2-3.8-4.2-5.4-6.5
		c-0.5-0.8-1.1-1.8-1.4-2.8C73,105.8,71.7,106.6,70.4,107.4z M82.8,114.2c0.2,0.1,0.4,0.3,0.6,0.4c0.3,0.2,0.6,0.4,0.9,0.7
		c1.6-0.5,3.1-1,4.7-1.4c-0.3-0.8-0.6-1.6-0.9-2.4c-0.1,0.1-0.3,0.1-0.4,0.2C86,112.4,84.2,113.2,82.8,114.2z M6.2,89.3l20.6,18.8
		c1.9,1.7,3.9,3.5,6.1,4.9c0.8,0.5,1.7,1,2.6,1.4c0.1,0,0.2,0.1,0.3,0.1c-3.4-5.5-7.7-10.4-12.6-14.6c-0.3-0.3-0.7-0.6-1-0.8
		c-1.9-1.6-3.8-3.2-5.2-5.3c-0.2-0.3-0.3-0.6-0.5-0.9l-0.1,0.7l-0.7-0.6c-0.7-0.7-1.5-1.3-2.3-1.8C11.1,90.1,8.7,89.5,6.2,89.3z
		 M44.6,113.4l0.7,0.8l3.5-7.7c-2.6-2.8-5.2-5.5-8-8C42.5,103.4,43.8,108.4,44.6,113.4z M126.3,106.1l-2.3,7.7
		c0.9-1.1,2.1-2.2,3.5-3.2l1.5-4l-1.2-0.2C127.3,106.3,126.8,106.2,126.3,106.1z M76.1,104.1c0.2,0.5,0.4,0.9,0.6,1.4l0.3,0.6
		c0.9,2.1,1.8,4.3,3.3,5.9c0.5,0.6,1.1,1.1,1.8,1.6c1.5-1.2,3.5-2,5.4-2.9c0.1-0.1,0.3-0.1,0.4-0.2c-0.8-2-1.8-3.8-2.9-5.5
		c0-0.1-0.1-0.1-0.1-0.2c-2-0.6-4-1.3-5.9-2C77.9,103.2,77,103.7,76.1,104.1z M89,111.1c0.3,0.8,0.6,1.7,0.9,2.5
		c1.4-0.4,2.8-0.8,4.2-1.2c1-0.3,2-0.6,3-0.8c-0.4-1.6-0.9-3.1-1.5-4.6c-1.9,1.5-3.9,2.9-6.2,3.9C89.3,110.9,89.2,111,89,111.1z
		 M128.3,111.2l-0.8,2c0.2-0.1,0.4-0.1,0.5,0c0.7-1.1,1.4-2.2,2.1-3.2C129.5,110.4,128.9,110.8,128.3,111.2z M49.9,106.4
		c1.4,1.5,2.7,3,4,4.5c0.5,0.6,1,1.2,1.6,1.8c1-2.6,2-5,3.1-7.3c1.1-2.4,2.2-4.8,3.7-6.8c0,0,0-0.1-0.1-0.1l-1-1.5
		c-0.3-0.4-0.5-0.8-0.8-1.1c-1.6-0.7-3.2-1.4-4.9-2.1l-2.4,5.2c0.1,0.8,0.2,1.7,0.2,2.5l0.1,0.3l-0.1,0c0,0.5,0,0.9-0.1,1.4
		l-0.1,0.7l-0.6-0.3c-0.4-0.2-0.8-0.4-1.2-0.6L49.9,106.4z M107.4,111.4l0.9,0.9c0-0.2,0-0.3,0-0.5
		C108,111.7,107.7,111.5,107.4,111.4z M29,95.5c1.1,1.5,2.3,2.8,3.5,4.1L43.4,112c-0.9-5-2.3-10-4.1-14.8c-3.7-3.1-7.7-5.8-12.1-7.7
		C27.7,91.5,28.3,93.5,29,95.5z M96.5,106.3c0.6,1.6,1.2,3.3,1.6,5c2-0.6,4-1.2,5.9-1.8l-5.4-5.2C97.9,105,97.2,105.6,96.5,106.3z
		 M106.1,110.2c0.7,0.1,1.4,0.3,2.1,0.6c0-0.5-0.1-1.1-0.1-1.6c-0.5,0.2-1.1,0.4-1.6,0.6C106.4,109.8,106.2,110,106.1,110.2z
		 M86.2,105.3c1,1.6,1.8,3.2,2.5,4.9c0.2-0.1,0.3-0.1,0.5-0.2c2.3-1.1,4.3-2.4,6.2-4c-0.2-0.5-0.4-1-0.6-1.6c-0.8-2-1.7-3.8-2.5-5.6
		c-0.6,0.1-1.3,0.2-1.9,0.4l0.7,3.3l-1.2-2.5c-0.4,1.8-0.9,3.6-1.4,5.4l-0.1,0.5l-0.5-0.1C87.2,105.6,86.7,105.5,86.2,105.3z
		 M132.3,100.4l-3.5,9.2c0.9-0.5,1.8-1.1,2.9-1.6c2.1-2.5,4.3-4.7,6.6-7c1.2-1.2,2.5-2.3,3.6-3.2c-0.8,0.1-1.7,0.2-2.6,0.1
		c-1.1,0-2.1-0.1-3.2-0.2c-0.8,0.5-1.7,1.1-2.5,1.7l-0.1,0.1C133.1,99.9,132.7,100.2,132.3,100.4z M109,108.7c0,0.2,0,0.3,0,0.5
		c0,0,0-0.1,0-0.1C109.1,109,109.1,108.8,109,108.7C109.1,108.7,109.1,108.7,109,108.7z M99.2,103.6l5.8,5.6
		c0.3-0.1,0.6-0.2,0.9-0.3c0.6-0.6,1.3-1.2,2-1.7c-0.2-2.9-0.6-5.7-1-8.5c-0.5-0.3-1-0.6-1.5-0.9l0,0.5c-0.6,0-1.3,0.1-1.9,0.1
		C102.2,100.1,100.8,101.9,99.2,103.6z M17.4,92.5c0.1,0.2,0.2,0.4,0.4,0.6c1.3,2,3.2,3.6,5,5.1c0.3,0.3,0.7,0.6,1,0.9
		c3.5,3,6.6,6.3,9.4,9.9c-1.9-4.3-3.6-8.7-5.1-13.2c-1.6-2.1-3-4.4-3.7-6.9c-0.7-2.5-0.8-5.1-0.3-7.7c-0.9,0.4-1.8,0.8-2.7,1.2
		c-1.6,0.7-3.2,1.6-4.1,3c-0.1,0.1-0.1,0.2-0.2,0.2c0.8,0,1.5,0.1,2.3,0.1l0,1c-0.8,0-1.6,0-2.5,0c0.2,1.8,0.4,3.6,0.5,5.5
		L17.4,92.5z M68.6,106.8c-0.1,0.3-0.3,0.7-0.4,1c0.3-0.2,0.5-0.4,0.8-0.6C68.9,107.1,68.7,106.9,68.6,106.8z M110.2,106.9
		c0,0.1,0,0.2,0,0.2c0.9-0.4,1.8-0.8,2.7-1.3C112,106.1,111.1,106.5,110.2,106.9z M144.8,97.1c-1.8,1.1-3.7,2.6-5.8,4.7
		c-1.7,1.7-3.5,3.5-5.1,5.3c0.9-0.4,1.8-0.7,2.8-1.1l0.8-0.3c6.1-2.2,12.4-4.4,15.5-9.7c-2.1-1-4.5-0.8-7.2,0.6
		C145.5,96.8,145.2,97,144.8,97.1z M75.2,104.6c0.2,0.8,0.7,1.6,1.1,2.3c-0.1-0.2-0.1-0.3-0.2-0.5l-0.3-0.6
		C75.6,105.4,75.4,105,75.2,104.6C75.2,104.6,75.2,104.6,75.2,104.6z M69,105.7c0.3,0.3,0.5,0.6,0.8,1c1.4-0.9,2.8-1.8,4.3-2.6
		c-0.1-0.6-0.1-1.2,0.1-1.9c0,0,0-0.1,0-0.1c-0.2-0.4-0.4-0.8-0.6-1.2c-0.4-0.1-0.8-0.3-1.2-0.4c-1.1,1.4-2.1,2.9-3.2,4.4
		C69.2,105.2,69.1,105.5,69,105.7z M108.1,99.4c0.3,2.4,0.6,4.8,0.8,7.2c0.1-0.1,0.3-0.2,0.4-0.3c0.2-1.7,0.4-3.5,0.7-5.3
		C109.4,100.5,108.7,99.9,108.1,99.4z M126.8,104.3l2.3,2l1.9-5c-1.1,0.6-2.3,1-3.5,0.8L126.8,104.3z M110.8,101.9
		c-0.2,1.3-0.4,2.6-0.5,3.9c0.8-0.4,1.6-0.7,2.4-0.9c0.1,0,0.3-0.1,0.4-0.1C112.5,103.8,111.7,102.8,110.8,101.9z M40.1,96.7
		c3.2,2.7,6.2,5.8,9.1,8.9l1.4-3.1c-4-2.1-7.7-4.6-11.2-7.4C39.7,95.6,39.9,96.1,40.1,96.7z M93.5,99.4c0.7,1.5,1.4,3,2.1,4.6
		c0.2,0.4,0.4,0.8,0.5,1.3c0.6-0.5,1.2-1.1,1.8-1.7L93.5,99.4z M118.3,104.3c2.5,0,4.9,0.3,7.3,0.7l0.1-0.4l-3.7-3.3
		c-1.3,1.1-2.7,2.1-4.2,3C117.9,104.3,118.1,104.3,118.3,104.3z M64.7,100.2c1.1,1.6,2.3,3.1,3.5,4.6c0.1-0.1,0.1-0.2,0.2-0.3
		c0.6-1.6,1.2-3.2,1.8-4.8c-1.3-0.5-2.6-1-3.8-1.5C65.8,98.9,65.3,99.5,64.7,100.2z M85.3,104c0.7,0.2,1.5,0.5,2.2,0.7
		c0.5-1.7,1-3.5,1.3-5.3c-1.9,0.4-3.8,1-5.7,1.6C83.9,102,84.7,103,85.3,104z M111,100.7c1.2,1.2,2.2,2.5,3.1,3.9
		c0.5-0.1,1-0.2,1.5-0.2c1.9-1.1,3.8-2.3,5.5-3.7l-6.5-5.7c-0.5-0.4-1.1-0.9-1.6-1.4C112.2,95.8,111.5,98.3,111,100.7z M122.7,100.7
		l3.3,2.9l0.8-2.6l0.4,0.1c1.5,0.3,2.9-0.4,4.3-1.2l0.9-2.5c-1.7-0.3-3.5-0.8-5.2-1.4C125.9,97.7,124.4,99.3,122.7,100.7z
		 M80.1,102.3c1.2,0.4,2.5,0.8,3.7,1.3c-0.5-0.7-1.1-1.4-1.6-2C81.5,101.7,80.8,102,80.1,102.3z M75.2,102.1
		c0.2,0.4,0.3,0.8,0.5,1.1c0.6-0.3,1.2-0.6,1.7-0.8c-0.7-0.2-1.4-0.5-2-0.7C75.4,101.8,75.3,101.9,75.2,102.1z M94,98.5l4.6,4.4
		c1.4-1.5,2.6-3,3.8-4.7c-0.8,0-1.6-0.1-2.4-0.2C98,98.1,96,98.3,94,98.5z M51.9,102c0.2,0.1,0.4,0.2,0.6,0.3c0-0.2,0-0.4,0-0.6
		c-0.1,0-0.3,0-0.4,0L51.9,102z M76,100.8c0.9,0.3,1.8,0.7,2.7,1c0.9-0.4,1.8-0.8,2.7-1.1c-0.7-0.8-1.5-1.5-2.2-2.1
		c-0.3,0.1-0.5,0.3-0.8,0.4l0,0.1l-0.1,0c0,0-0.1,0.1-0.1,0.1C77.5,99.6,76.7,100.1,76,100.8z M50.1,101.1c0.3,0.2,0.6,0.3,1,0.5
		l0.1-0.2C50.8,101.3,50.4,101.2,50.1,101.1z M71.1,100c-0.2,0.5-0.3,0.9-0.5,1.4c0.3-0.4,0.6-0.8,0.9-1.2
		C71.4,100.1,71.2,100.1,71.1,100z M44.4,93.2c1,3.1,3.6,6.5,7.1,7.3l0.2-0.4c-2-3.9-4.5-7.6-7.4-10.9c0.3,1.2,0.4,2.4,0.4,3.5
		l0,0.4L44.4,93.2z M74.3,100.2c0.3,0.1,0.5,0.2,0.8,0.3c0.6-0.8,1.5-1.4,2.3-1.9c-0.8-0.4-1.6-0.7-2.4-1.1c-0.4,0.5-0.8,1-1.2,1.5
		C73.9,99.4,74.1,99.8,74.3,100.2z M80.1,98.1c0.8,0.7,1.6,1.4,2.3,2.3c2.1-0.8,4.3-1.4,6.5-1.9c-0.5-1-1.1-2-1.7-3
		C84.9,96,82.5,96.9,80.1,98.1z M113.6,92.6c0.6,0.6,1.2,1.2,1.8,1.7l6.6,5.8c1.6-1.3,3.1-2.8,4.4-4.4c-1.3-0.5-2.5-1-3.7-1.7
		c-1.8-0.9-4-2.3-4.8-4.6c-0.2-0.7-0.3-1.5-0.3-2.2c-1.3,1.3-2.4,2.7-3.2,4.1C114.1,91.7,113.8,92.1,113.6,92.6z M107.9,98.1
		c0.8,0.6,1.6,1.2,2.3,1.8c0.5-2.4,1.2-4.9,2.3-7.2c-0.4-0.5-0.8-1-1.1-1.6c-0.8-1.6-0.9-3.3-0.8-4.7c-0.5,1-1.1,2.1-1.7,3.2
		c0.3,0.7,0.5,1.4,0.6,2.2l0.3,1.7l-1.1-1.3c-0.2-0.3-0.5-0.6-0.7-0.8c-0.3,0.5-0.6,1-0.9,1.5C107.4,94.6,107.6,96.3,107.9,98.1z
		 M38.7,93.1c2.9,2.5,5.9,4.7,9.2,6.7c-2.1-1.6-3.7-4-4.4-6.4c0,0,0-0.1,0-0.1C41.9,93.5,40.3,93.4,38.7,93.1z M71.4,99.1
		c0.2,0.1,0.5,0.2,0.7,0.3c0.1-0.2,0.3-0.4,0.4-0.5c-0.2-0.4-0.4-0.8-0.6-1.2C71.8,98.1,71.6,98.6,71.4,99.1z M45.3,88.8
		c2.7,3.1,5,6.5,6.9,10.1l0.1-0.2c-0.4-2.7-1.2-5.3-2.6-7.8C48.2,90.3,46.8,89.6,45.3,88.8z M64.8,97.5c-0.1,0.5-0.2,0.9-0.3,1.4
		c0.3-0.4,0.6-0.8,0.9-1.1C65.2,97.7,65,97.6,64.8,97.5z M133.4,97.5l-0.5,1.3c0,0,0,0,0,0l0.1-0.1c0.5-0.4,1-0.7,1.5-1
		C134.2,97.7,133.8,97.6,133.4,97.5z M67,97.4c1.2,0.5,2.4,0.9,3.6,1.4c0.3-0.8,0.5-1.5,0.8-2.3c-0.2-0.3-0.3-0.6-0.5-0.9
		c-0.6-0.3-1.2-0.6-1.9-0.8c0,0-0.1,0-0.1,0C68.2,95.7,67.6,96.5,67,97.4z M90.4,96.5c-0.1,0.6-0.2,1.2-0.3,1.7
		c0.5-0.1,1-0.2,1.5-0.3c-0.1-0.2-0.2-0.3-0.2-0.5L90.4,96.5z M78,97.6c0.1,0.2,0.1,0.3,0.2,0.5l0,0c0.1-0.1,0.2-0.1,0.3-0.2
		C78.3,97.8,78.1,97.7,78,97.6z M72.4,96.4c0.3,0.5,0.6,1.1,0.9,1.6c0.3-0.3,0.5-0.6,0.8-1C73.5,96.8,72.9,96.6,72.4,96.4
		C72.4,96.3,72.4,96.4,72.4,96.4z M92.2,96.9l0.8,0.8c0.9-0.1,1.8-0.2,2.7-0.3c-1.3-0.3-2.6-0.6-3.8-1
		C92.1,96.5,92.1,96.7,92.2,96.9z M62.2,96.5l0.8,1.2c0.2-0.2,0.4-0.4,0.6-0.6C63.1,96.9,62.6,96.7,62.2,96.5z M76.6,95.5
		c0.9,0.6,1.9,1.2,2.7,1.9c2.4-1.2,4.8-2.2,7.3-2.8c-1-0.4-2-0.7-3-1.1c-1.3-0.5-2.6-0.9-3.8-1.4c-0.1,0-0.1-0.1-0.2-0.1
		C78.6,93.2,77.6,94.3,76.6,95.5z M104.9,96.3c0.7,0.3,1.3,0.7,1.9,1.1c-0.2-1.1-0.3-2.2-0.5-3.3C105.8,94.8,105.4,95.6,104.9,96.3z
		 M75.6,96.7c0.4,0.2,0.8,0.3,1.1,0.5c-0.2-0.3-0.5-0.6-0.8-0.9C75.8,96.4,75.7,96.5,75.6,96.7z M51.2,91.6c0.9,1.8,1.5,3.7,1.9,5.6
		l1.8-3.9C53.6,92.7,52.4,92.2,51.2,91.6z M101.2,97.1c0.7,0,1.3,0,2,0c0.1-0.1,0.2-0.3,0.3-0.4c-0.5-0.2-0.9-0.4-1.4-0.6
		c-3.4-1.2-7.1-1.6-10.9-1.3c0.1,0.1,0.1,0.2,0.2,0.3c2.9,0.9,5.8,1.6,8.7,1.9C100.4,97.1,100.8,97.1,101.2,97.1z M137.6,97
		c0.6,0,1.2,0.1,1.8,0.1c2.1,0,3.7-0.3,5-0.8c0.3-0.2,0.6-0.4,0.9-0.5c0.5-0.3,0.9-0.7,1.3-1.2c0.4-0.5,0.7-1.1,0.8-1.8
		C143.9,93.8,140.7,95.3,137.6,97z M65.3,96.7c0.2,0.1,0.5,0.2,0.7,0.3c0.4-0.5,0.8-1,1.2-1.6c-0.1,0-0.2,0.1-0.3,0.1
		C66.4,95.9,65.8,96.3,65.3,96.7z M133.8,96.6c0.7,0.1,1.4,0.2,2.1,0.3c3.6-2.2,7.5-3.9,11.6-5.2c0-2.2-1.2-4.9-3.6-8.1
		c-1.1-1.5-2.3-3-3.5-4.5L133.8,96.6z M127.9,95.1c1.6,0.5,3.2,1,4.9,1.3l6.8-18.2c-1.4-1.6-2.9-3.1-4.7-4.4c-1.1-0.8-2.1-1.4-3.2-2
		c-4.1,1.7-7.5,5.6-10.3,9.1c-0.8,1.1-1.6,2.2-2.2,3.4c2.9-2,6.3-3.2,10-2.7c0.8,0.1,1.7,0.3,2.3,1.1c0.8,1,0.6,2.3,0.4,3.3
		C131.3,89.5,129.8,92.5,127.9,95.1z M72.7,95.4c0.6,0.3,1.3,0.6,1.9,0.9c0.2-0.2,0.3-0.4,0.5-0.5c-0.6-0.3-1.1-0.6-1.7-0.9
		c-0.2,0-0.3-0.1-0.5-0.1C72.8,95,72.8,95.2,72.7,95.4z M61.2,95c0.9,0.4,1.9,0.8,2.9,1.2c0.2-1.1,0.5-2.2,0.8-3.3
		c-2.4-1.1-4.9-2.1-7.3-3.2c0,0,0,0.1-0.1,0.2C58.8,91.5,60,93.3,61.2,95z M93.7,93.8c3,0,5.9,0.5,8.7,1.4c0.6,0.2,1.1,0.4,1.6,0.7
		c0.7-1.1,1.4-2.2,2-3.2c-0.2-1.2-0.4-2.3-0.6-3.4c-1.1,0.5-2.1,0.8-3.2,1.1c-3.7,0.9-7.5,0.8-11.2,0.8c-0.1,1-0.1,2-0.2,2.9
		C91.7,93.8,92.7,93.8,93.7,93.8z M65.7,93.3c-0.2,0.7-0.4,1.5-0.5,2.2c0.4-0.3,0.8-0.6,1.3-0.8c0.4-0.2,0.8-0.4,1.2-0.6
		C67,93.9,66.4,93.6,65.7,93.3z M25.8,87.9l0.9,0.4c4.4,1.8,8.3,4.2,11.9,7.1c-0.2-0.6-0.5-1.2-0.7-1.8c-0.4-0.3-0.8-0.7-1.1-1
		c-2.3-0.8-4.4-2-6.1-3.7c-2.3-2.3-3.7-5.3-4.3-8.4c-0.4,0.1-0.8,0.3-1.2,0.4c-0.6,2.6-0.6,5.3,0.2,7.8c0.4,1.4,1.1,2.7,1.8,4
		c-0.4-1.3-0.7-2.6-1.1-3.9L25.8,87.9z M71.5,94.8c0.1,0,0.2,0.1,0.3,0.1c0-0.1,0.1-0.3,0.1-0.4c-0.2,0-0.4,0-0.6,0
		C71.4,94.6,71.4,94.7,71.5,94.8z M73.7,94c0.2,0.1,0.4,0.1,0.6,0.2c0.5,0.2,1,0.5,1.5,0.8c0.9-1.1,1.9-2.1,2.9-3.2
		c-0.3-0.1-0.5-0.2-0.8-0.3c-1.4,0.2-2.7,0.4-4.1,0.6c-0.2,0.5-0.3,1.1-0.5,1.6C73.4,93.8,73.6,93.9,73.7,94z M118.7,86.1
		c-0.2,1-0.3,1.9,0.1,2.9c0.7,2,2.7,3.2,4.3,4.1c1.3,0.6,2.6,1.2,3.9,1.7c1.9-2.6,3.4-5.5,4.2-8.9c0.2-0.7,0.3-1.8-0.2-2.5
		c-0.4-0.5-1.1-0.6-1.7-0.7C125.3,82.2,121.6,83.7,118.7,86.1z M56.1,92.8c1.1,0.5,2.3,1,3.4,1.5c-0.8-1.2-1.7-2.3-2.6-3.4
		L56.1,92.8z M89.1,93.9l0.3,0.3c0.1,0,0.2,0,0.3,0c-0.2-0.4-0.5-0.8-0.7-1.2C88.9,93.2,89,93.5,89.1,93.9z M87.4,93.9
		c0.1,0,0.3,0.1,0.4,0.1l-1-0.9C87.1,93.3,87.2,93.6,87.4,93.9z M68.1,93.3c0.1,0.1,0.3,0.1,0.4,0.2c0,0,0.1-0.1,0.1-0.1
		C68.4,93.4,68.2,93.3,68.1,93.3z M70.4,92.8c0.7,0.2,1.3,0.4,2,0.6c0.1-0.4,0.2-0.7,0.3-1.1C71.9,92.5,71.1,92.6,70.4,92.8z
		 M80.4,91.3c1.2,0.4,2.4,0.9,3.6,1.3c0.6,0.2,1.2,0.4,1.8,0.6c-0.6-0.8-1.2-1.5-1.8-2.3c-1.2,0-2.3,0.1-3.5,0.2
		C80.5,91.3,80.4,91.3,80.4,91.3z M154.3,91.4c0,0.4,0.1,0.8,0.4,1.2c0.2,0.2,0.4,0.4,0.7,0.6C155.1,92.6,154.7,92,154.3,91.4z
		 M66,92.4c0.2,0.1,0.5,0.2,0.7,0.3l1.3-0.3c0.3-0.1,0.5-0.1,0.8-0.2c-0.6-1-1.2-1.9-1.9-2.9C66.6,90.3,66.3,91.4,66,92.4z M86.1,91
		l1.8,1.7c-0.1-0.6-0.2-1.2-0.3-1.7c-0.2,0-0.4,0-0.6,0C86.7,90.9,86.4,91,86.1,91z M88.9,91c0.3,0.5,0.7,1.1,1,1.6
		c0-0.5,0.1-1.1,0.1-1.6C89.6,91,89.2,91,88.9,91z M38.2,92c1.6,0.4,3.3,0.5,5,0.3c-0.4-1.6-0.6-3.2-0.6-4.8c-3.2-1.6-6.4-3.2-9.5-5
		c0.5,0.6,0.9,1.3,1.3,1.9C35.8,86.9,37.1,89.5,38.2,92z M50.4,90.2c1.6,0.7,3.2,1.5,4.8,2.2l0.9-2c0.1-0.1,0.1-0.3,0.2-0.4
		c-0.4-0.5-0.8-0.9-1.3-1.4c-2.8-1.2-5.6-2.4-8.4-3.6c0.2,0.2,0.4,0.5,0.7,0.7C48.5,87.2,49.5,88.7,50.4,90.2z M57.9,88.9
		c2.4,1,4.8,2.1,7.2,3.1c0.3-1.2,0.7-2.5,1.1-3.7c0,0,0-0.1-0.1-0.1c-2.3-0.6-4.7-1-7-1.5C58.7,87.4,58.3,88.1,57.9,88.9z
		 M111.7,84.4c-0.1,0.5-0.1,0.9-0.1,1.4c-0.1,1.3-0.1,3.3,0.7,4.9c0.2,0.4,0.4,0.7,0.7,1.1c0.2-0.3,0.4-0.7,0.5-1
		c1.1-1.9,2.6-3.7,4.3-5.2c0.5-1.8,1.7-3.5,2.9-5.1c2.6-3.4,5.9-7.1,9.8-9.1c-2.6-1-5.3-1.3-7.7-0.8c-0.6,0.1-1.2,0.3-1.7,0.5
		c-1.1,1-2.2,1.9-3.3,2.8c-1,1.4-1.8,3-2.5,4.5l0.1,0l-0.1,0.1c-0.4,1-0.8,1.9-1.2,2.9l-0.4,1.1l-0.4-1
		C112.8,82.7,112.3,83.6,111.7,84.4z M67.6,88.6c0.7,1,1.4,2.1,2.1,3.2c0.5-0.8,0.9-1.5,1.4-2.3C69.9,89.1,68.7,88.8,67.6,88.6z
		 M72,89.7c-0.4,0.7-0.8,1.3-1.2,2c0.7-0.2,1.5-0.3,2.2-0.4c0.1-0.4,0.2-0.8,0.3-1.2C72.9,90,72.4,89.8,72,89.7z M27.8,80.9
		c2.6,3.8,5.7,7.4,9,10.5c-1-2.2-2.1-4.4-3.3-6.5C32.6,83.2,30.1,80.2,27.8,80.9z M140.8,78.1c1.4,1.6,2.7,3.4,3.9,5
		c2.4,3.2,3.7,6.1,3.8,8.4c1.7-0.5,3.5-0.9,5.2-1.2c-4.2-7.1-7.6-14.6-10.2-22.4l0.9-0.3c2.4,5.4,5,11.2,8.5,16.4
		c-2.9-7-2.5-15.3,1.6-21.7l-2.5-0.2c-0.9,0.5-1.8,0.9-2.7,1.3c-3.1,1.5-6.4,2.8-9.9,2.5c-2.5-0.2-5.2-1.4-6.7-3.5
		c-0.9,0-1.7,0-2.6,0c-2.4,2.5-4.8,4.9-7.3,7.3c2.8-0.6,6-0.1,9,1.3c1.7-0.6,3.4-1,5.3-0.8c1.5,0.1,2.6,0.6,3.3,1.3
		C142.2,73.1,141.5,75.9,140.8,78.1z M106.5,89.6c0.1,0.6,0.2,1.2,0.3,1.8c0.2-0.3,0.3-0.5,0.5-0.8C107,90.2,106.7,89.9,106.5,89.6z
		 M74.3,90.4c-0.1,0.2-0.1,0.5-0.2,0.7c0.5-0.1,1.1-0.2,1.6-0.3C75.2,90.7,74.7,90.5,74.3,90.4z M13.8,90.2c0.6,0.2,1.1,0.5,1.7,0.8
		c-0.4-1.6-2-3-3.6-3.5c-1.2-0.4-2.4-0.4-3.6-0.4c-1.2,0.1-2.4,0.3-3.5,0.5l-0.2-1c1.2-0.2,2.4-0.4,3.7-0.5c0.3,0,0.5-0.1,0.8-0.1
		c0-0.7,0.2-1.3,0.6-1.8c-2.6-0.1-5.3,0.3-7.8,1.1L4.8,88C7.9,87.8,11.1,88.6,13.8,90.2z M28,82.8c0.7,2,1.8,3.9,3.4,5.4
		c1,1,2.1,1.8,3.4,2.5C32.3,88.3,30,85.6,28,82.8z M74.5,89.5c1.1,0.3,2.3,0.7,3.4,1.1c0.7-0.1,1.4-0.2,2.1-0.2
		c0.6-0.6,1.2-1.2,1.8-1.8c-0.5-0.5-0.9-1-1.4-1.5c-1.4-1.4-2.9-2.8-4.3-4.2C75.8,85,75.2,87.2,74.5,89.5z M82.5,89.2
		c-0.3,0.3-0.6,0.6-1,0.9c0.6,0,1.1-0.1,1.7-0.1C83,89.8,82.8,89.5,82.5,89.2z M91,90c3.7,0.1,7.4,0.1,11-0.7c1-0.2,2.1-0.6,3.2-1.1
		c0-0.1,0-0.1,0-0.2c-2.5-3.1-5.1-6.2-7.6-9.5l-0.8-0.8c-2,1.4-4,2.8-5.9,4.3C91.1,84.7,91.1,87.4,91,90z M88.3,90
		c0.6,0,1.1,0,1.7,0c0.1-2.4,0-4.8-0.2-7.2c-0.2,0.2-0.4,0.3-0.6,0.5c0.1,1.3,0.3,2.6,0.4,4l-1,0.1c-0.1-1.1-0.3-2.1-0.5-3.2
		c-0.3,0.2-0.5,0.4-0.8,0.6C87.7,86.5,88,88.3,88.3,90z M83.4,88.4l1.7,1.6c0.7,0,1.3,0,2,0c0,0,0,0,0,0c-0.7-1-1.4-2-2.1-3
		C84.4,87.4,83.9,87.9,83.4,88.4z M106.8,88.5c0.3,0.4,0.6,0.8,0.9,1.1c0,0,0,0,0-0.1c-0.2-0.4-0.4-0.8-0.7-1.2
		C107,88.4,106.9,88.4,106.8,88.5z M43.6,86.9c1.7,0.9,3.5,1.7,5.3,2.6c-0.7-1.1-1.4-2.1-2.3-3c-0.8-0.9-1.6-1.7-2.4-2.4
		c-0.1-0.1-0.3-0.1-0.4-0.2C43.6,84.9,43.6,85.9,43.6,86.9z M72.4,88.8c0.4,0.1,0.8,0.2,1.2,0.3c0.6-2,1.1-4,1.6-6
		C74.3,85.1,73.4,87,72.4,88.8z M13,86.9c0.9,0.4,1.8,1.1,2.4,1.9c0-0.6,0.1-1.3,0.2-1.9C14.7,86.9,13.9,86.9,13,86.9z M67.5,87.5
		c1.3,0.3,2.7,0.7,4,1c1.3-2.4,2.4-4.8,3.4-7.3c-1.2-1.4-2.3-2.8-3.3-4.3C70.1,80.4,68.7,83.9,67.5,87.5z M108,87.8
		c0.1,0.2,0.3,0.5,0.4,0.7c0.3-0.5,0.6-1,0.8-1.6C108.8,87.3,108.4,87.6,108,87.8z M55.6,87.8c0.5,0.2,1,0.4,1.5,0.6
		c0.3-0.7,0.7-1.3,1.1-1.9c-1.6-0.3-3.3-0.5-4.9-0.8C54,86.4,54.8,87.1,55.6,87.8z M85.7,86.3c0.5,0.6,0.9,1.2,1.3,1.8
		c-0.2-0.9-0.3-1.7-0.5-2.6C86.3,85.8,86,86.1,85.7,86.3z M81.2,86.3c0.2,0.2,0.3,0.3,0.5,0.5l1,0.9c0.5-0.5,1.1-1,1.7-1.5
		c-1.8-2.2-3.6-4.2-5.6-6c-0.5-0.5-1.1-1-1.7-1.4c-0.2,0.8-0.3,1.6-0.5,2.4c0.7,0.9,1.4,1.7,2.2,2.5c0.6,0.7,1.2,1.4,1.9,2.1
		C80.8,85.9,81,86.1,81.2,86.3z M106.1,87.6c0,0.1,0.1,0.1,0.1,0.2c0.1-0.1,0.3-0.1,0.4-0.2c-0.2-0.3-0.5-0.6-0.7-1
		C105.9,86.9,106,87.2,106.1,87.6z M63.1,82.6c1.2,1.5,2.3,3,3.4,4.6c1.3-3.8,2.8-7.5,4.4-11.2c-0.1-0.2-0.2-0.3-0.3-0.5
		c-0.3-0.5-0.5-0.9-0.7-1.4c-1.2-0.6-2.5-1.2-3.8-1.7c0.4,1.9,0.9,3.7,1.3,5.6l-0.9,0.3c-0.7-2.1-1.3-4.3-2-6.4
		c-1.1-0.3-2.1-0.6-3.2-0.8l1.1,8.7c0.9,0.4,1.7,0.9,2.5,1.4l1.1,0.6l-1.2,0.3C64.3,82.1,63.7,82.3,63.1,82.6z M59.7,85.9
		c1.9,0.4,3.7,0.7,5.6,1.2c-1-1.3-2-2.6-3-3.9C61.3,83.8,60.5,84.8,59.7,85.9z M105.4,84.6c0.7,0.8,1.4,1.6,2,2.4
		c1.2-0.8,2.3-1.7,3.3-2.8c0.1-0.1,0.1-0.2,0.2-0.3c0.2-1.2,0.5-2.3,0.9-3.5c-0.1-0.4-0.2-0.8-0.4-1.2c-0.3,0.2-0.6,0.5-0.9,0.7
		l-2.2,1.7l1.5-2.3c0.3-0.4,0.6-0.8,0.8-1.2c-0.1-0.1-0.1-0.2-0.2-0.2l-0.2-0.3c-1.9-0.8-3.8-1.7-5.7-2.6l3,7.9l-1.4-1.2
		c-0.6-0.5-1.2-1.1-1.8-1.6C104.7,81.5,105.1,83,105.4,84.6z M44.6,83.2c2.7,1.1,5.4,2.3,8,3.4c-0.5-0.4-1.1-0.8-1.7-1.1l-2-1.2
		l2.3,0.3c2.5,0.3,5,0.7,7.4,1.1c0.9-1.3,1.9-2.5,3-3.3c-1-1.2-2-2.4-3.1-3.6c-4.1-2-8.2-3.9-12.5-5.6c-1,1.1-1.5,2.6-1.8,4.2
		l0.4,0.1l-0.4,0c-0.2,1-0.3,2.1-0.4,3.3c-0.1,0.6-0.1,1.1-0.2,1.7C44.1,82.7,44.3,83,44.6,83.2z M102.2,82.9c0.8,1,1.6,2,2.5,3.1
		c-0.1-0.3-0.1-0.6-0.2-0.8c-0.7-0.7-1.4-1.4-2.1-2.1L102.2,82.9z M77.3,77.6c0.7,0.6,1.4,1.2,2.1,1.8c2,1.8,3.9,3.8,5.6,6.1
		c0.4-0.4,0.9-0.8,1.3-1.1c-0.8-4.6-1.5-9.2-2-13.9c-1.7-0.4-3.4-1-5-1.8c-0.2,1.4-0.5,2.8-0.8,4.1c-0.4,1.5-0.8,2.9-1.2,4.3
		C77.4,77.4,77.3,77.5,77.3,77.6z M29.5,79.5c3.7,2.1,7.5,4.1,11.3,6c-2.2-2.1-4.6-4.1-7.2-5.8c-0.6-0.3-1.3-0.5-1.9-0.8
		C30.9,79.1,30.2,79.3,29.5,79.5z M41.2,82.8c0.5,0.7,1,1.4,1.5,2.2c0-0.5,0.1-1,0.1-1.6C42.2,83.2,41.7,83,41.2,82.8z M10.8,66.3
		c2.7,5.9,4.7,12.1,5.7,18.5c1.1-1.5,2.7-2.4,4.3-3.2c1.1-0.5,2.2-1,3.4-1.5c0.2-0.7,0.4-1.5,0.7-2.2c-1.5-0.9-3.1-1.8-4.6-2.7
		L19,74.4l1.7,0c2,0,3.9,0.1,5.8,0.4l0-0.2l0.3,0.2c0.3-0.4,0.6-0.8,0.9-1.2c-2-0.8-4-1.6-5.9-2.5c-1.5-0.7-6.2-3.2-5.2-6.9l0-0.1
		l-2.2,0c-0.9,0-2.1,0-3-0.7c-0.7-0.5-1-1.3-1.4-2c-0.1-0.2-0.2-0.5-0.3-0.7c-0.2-0.3-0.4-0.7-0.6-0.9c-0.2,0-0.3-0.1-0.5-0.1
		c-0.1,0-0.1,0-0.2,0C9.3,61.8,10.1,64.1,10.8,66.3z M37.3,81.2c1.4,1.1,2.7,2.2,4,3.4c-0.6-0.9-1.3-1.8-2.1-2.7
		C38.6,81.7,37.9,81.5,37.3,81.2z M85.8,74.4c0.4,3.1,0.9,6.2,1.4,9.3c0.2-0.2,0.5-0.4,0.8-0.6C87.4,80.1,86.7,77.2,85.8,74.4z
		 M98.3,77.9l4.7,4.4c0.4,0.3,0.7,0.7,1.1,1c-0.4-1.6-0.8-3.3-1.2-4.9c-0.8-1-1.6-2-2.3-3.1c-1,0.6-1.9,1.2-2.9,1.8
		C97.9,77.4,98.1,77.6,98.3,77.9z M88.6,74.4c0.1,2.6,0.3,5.1,0.6,7.7c0.2-0.2,0.4-0.3,0.6-0.5C89.5,79.2,89.1,76.8,88.6,74.4z
		 M36.8,78.7c2.1,0.7,4.1,1.8,6,3.1c0-0.4,0.1-0.8,0.1-1.1c0.1-1,0.2-2.1,0.4-3.1l-2.1,0.1c-1.8,0.1-3.5,0.2-5.3,0.5
		c0.2,0.2,0.5,0.3,0.7,0.5C36.7,78.6,36.8,78.7,36.8,78.7z M61,80c0.5,0.6,1,1.2,1.6,1.9c0.3-0.2,0.7-0.4,1-0.5
		C62.7,80.9,61.8,80.4,61,80z M39.7,81.2c0.3,0.1,0.6,0.2,0.9,0.4c-0.4-0.2-0.8-0.4-1.1-0.6C39.6,81,39.7,81.1,39.7,81.2z
		 M88.8,71.3c0.9,3.1,1.5,6.4,1.9,9.6c1.7-1.3,3.5-2.6,5.3-3.8l-6.1-5.7c-0.3-0.3-0.6-0.5-0.9-0.8c0,0.1,0,0.1,0,0.2l0,0.6
		L88.8,71.3z M34.7,79.1c0.8,0.3,1.5,0.6,2.3,0.9c-0.2-0.2-0.4-0.3-0.6-0.5C35.8,79.4,35.3,79.3,34.7,79.1z M25.9,78.5
		c-0.2,0.4-0.3,0.8-0.4,1.2c0.3-0.1,0.5-0.2,0.8-0.3c0-0.3,0-0.5-0.1-0.8C26.1,78.6,26,78.6,25.9,78.5z M72.7,75.6
		c0.8,1.4,1.8,2.8,2.8,4.1c0.2-0.6,0.4-1.2,0.6-1.8C75,77.1,73.8,76.3,72.7,75.6z M103.8,77.9c0.5,0.5,0.9,1,1.5,1.5l-2-5.3
		c-0.2-0.1-0.4-0.2-0.6-0.3C103,75.2,103.4,76.6,103.8,77.9z M112.1,78.5c0.1,0.1,0.1,0.3,0.2,0.4c0.1-0.2,0.2-0.4,0.3-0.6
		c-0.1,0-0.1,0-0.2-0.1C112.3,78.4,112.2,78.5,112.1,78.5z M27.1,78.1c0.4,0.2,0.8,0.5,1.2,0.7c0.6-0.2,1.2-0.3,1.8-0.5L28,77.5
		l2.1,0.1c-0.9-0.5-1.9-1.1-2.9-1.5C27.2,76.7,27.1,77.4,27.1,78.1z M58.1,76.1c1.1,0.8,2.2,1.7,3.3,2.5l-1-7.8
		c-2.7-0.5-5.4-0.6-8.1-0.3c-0.3,0-0.6,0.1-0.9,0.1c1.6,1.4,3.3,2.8,5.1,4.1c0.6,0.2,1.2,0.5,1.8,0.7L58.1,76.1z M113.9,77.9
		c0.2,0.1,0.3,0.1,0.5,0.2c0.4-0.8,0.7-1.5,1.2-2.3c-0.3,0.2-0.6,0.5-0.9,0.7C114.4,77,114.1,77.4,113.9,77.9z M85.7,70.9
		c0.8,2.3,1.5,4.7,2.1,7.1c-0.2-2.3-0.3-4.5-0.4-6.8C86.8,71.1,86.3,71,85.7,70.9z M32.3,77.7c0.1,0,0.2,0,0.3,0
		c0.1,0,0.2,0,0.3-0.1c-0.7-0.3-1.3-0.6-2-0.8C31.4,77.2,31.8,77.4,32.3,77.7z M27.8,75.1c2.4,0.5,4.7,1.3,6.7,2.3
		c1.2-0.2,2.4-0.4,3.6-0.5c-3.2-0.9-6.3-1.9-9.4-3C28.4,74.3,28.1,74.7,27.8,75.1z M133,71.5c0.9,0.5,1.7,1,2.6,1.6
		c1.6,1.2,3.1,2.6,4.5,4.1c0.6-1.8,1-3.9-0.3-5.2c-0.6-0.6-1.5-0.9-2.7-1C135.6,70.9,134.3,71.1,133,71.5z M29.5,73.1
		c3.9,1.4,7.8,2.6,11.8,3.6l2.1,0.5c0.3-1.6,0.8-3.1,1.8-4.4c-3.1-1.2-6.3-2.3-9.5-3.4c-2.1,0.7-4,1.7-5.7,3.2
		C29.8,72.8,29.6,73,29.5,73.1z M112.2,77.2C112.2,77.2,112.2,77.2,112.2,77.2c0.2-0.1,0.4-0.2,0.5-0.4c0-0.1,0-0.2-0.1-0.3
		C112.5,76.8,112.4,77,112.2,77.2z M22.5,75.4c1,0.6,2,1.2,3,1.7c0.2-0.5,0.5-0.9,0.7-1.4C25,75.6,23.8,75.5,22.5,75.4z M72.7,74.5
		c1.3,0.8,2.5,1.6,3.7,2.5c0.5-3,0.9-6.1,1.1-9.1c-0.3-0.2-0.6-0.3-0.8-0.5c-0.8,0.4-1.4,1.5-1.9,2.4C74.1,71.3,73.4,72.9,72.7,74.5
		z M110.7,76.6c0.2,0.1,0.4,0.2,0.6,0.2c0.3-0.4,0.6-0.9,0.9-1.3c-0.1-0.1-0.1-0.2-0.2-0.3c-0.9-1.4-2.4-2.2-4.1-2.6L110.7,76.6z
		 M46.9,72.5c3.3,1.3,6.6,2.8,9.9,4.3c-0.3-0.3-0.7-0.7-1-1c-2.9-1-5.6-2.3-8.2-3.8C47.3,72.1,47.1,72.3,46.9,72.5z M90.4,66.9
		c2.2,3.2,4.5,6.4,6.8,9.5c1-0.6,1.9-1.2,2.9-1.8c-0.5-0.8-1-1.7-1.4-2.6c-1.5-0.8-3.1-1.6-4.6-2.4c-1-0.5-1.9-1-2.8-1.6l0.5-0.8
		c0.9,0.5,1.8,1,2.8,1.5c1,0.5,2.1,0.9,3.2,1.3c-1.2-2.8-2.2-5.7-3.1-8.7c-1-0.5-2.1-1-3.2-1.6c-0.1,0.5-0.1,1-0.2,1.5l0.1,0.9
		l-0.2-0.3c-0.1,1.6-0.2,3.1-0.3,4.7l0,0.5l-0.5,0C90.4,66.9,90.4,66.9,90.4,66.9z M113.3,75.6c0.1,0.2,0.2,0.4,0.2,0.6
		c0.1-0.1,0.3-0.2,0.4-0.3c1.2-1.8,2.8-3.4,4.6-4.6c1.7-2.2,3.6-4.1,5.7-5.8c0.6-0.4,1.1-0.9,1.7-1.3c0.8-0.6,1.6-1.2,2.3-1.8
		c-0.1,0-0.2,0-0.3,0l-0.2,0l-0.1-0.2c-0.3-0.5-0.3-1-0.1-1.5c0.5-0.9,2.2-1.4,3.3-1.3l0.2,0c1.1-1.8,1.7-4.2,0.8-6.1
		C125.2,60.1,118.9,67.7,113.3,75.6z M101.4,74.8c0.2,0.4,0.5,0.7,0.8,1.1c-0.1-0.4-0.3-0.9-0.4-1.3
		C101.7,74.7,101.6,74.8,101.4,74.8z M103.9,73.5c1.7,0.8,3.4,1.6,5.1,2.3l-2.5-3.5c-0.9-0.2-1.9-0.2-2.9-0.3c-0.1,0-0.2,0-0.3,0
		L103.9,73.5z M88.9,69.1c0.6,0.5,1.1,1,1.7,1.5l3.6,3.4c-1.7-2.4-3.4-4.8-5-7.2c-0.2,0-0.5,0-0.7,0C88.7,67.6,88.8,68.3,88.9,69.1z
		 M100.1,72.7c0.2,0.5,0.5,0.9,0.8,1.3c0.3-0.2,0.6-0.3,0.9-0.5C101.2,73.2,100.7,73,100.1,72.7z M71.8,73.9c0,0,0.1,0,0.1,0.1
		c0.7-1.5,1.4-3.1,2.1-4.6c0.5-1,1.1-2,1.9-2.6c-2.2-1.4-4.2-3.2-5.8-5.1c-0.5,2.2-0.6,4.5-0.2,6.5C70.2,70.2,70.9,72.1,71.8,73.9z
		 M99.8,71.4c0.9,0.5,1.9,0.9,2.8,1.4l-0.4-1c-0.1,0-0.3,0-0.4,0C101.2,71.7,100.5,71.6,99.8,71.4z M49.6,71.1
		c0.9,0.6,1.9,1.2,2.9,1.8c-0.9-0.7-1.8-1.3-2.7-1.8C49.7,71,49.6,71,49.6,71.1z M17.5,64.8c-0.3,2.7,3.5,4.7,4.8,5.3
		c2,0.9,4.1,1.8,6.2,2.6c0.3-0.3,0.6-0.6,0.9-0.8c1.4-1.2,3-2.2,4.8-2.9C28.7,67.3,23.2,65.9,17.5,64.8z M37.4,69
		c2.9,0.9,5.7,2,8.5,3c0.1-0.1,0.2-0.1,0.2-0.2c0.2-0.1,0.3-0.3,0.5-0.4c-1.4-0.9-2.7-1.8-4-2.7C40.9,68.5,39.1,68.7,37.4,69z
		 M103,70.9c0.2,0,0.5,0.1,0.7,0.1c0.7,0.1,1.3,0.1,2,0.2l-5.6-7.9L103,70.9z M44.7,69c0.9,0.6,1.9,1.2,2.8,1.8c0,0,0,0,0.1,0
		c-0.7-0.5-1.3-1-1.9-1.6C45.3,69.2,45,69.1,44.7,69z M98.9,70.2c1,0.3,2,0.4,3,0.6l-3.1-8.2c-1-0.1-2-0.5-3-0.9
		C96.7,64.7,97.7,67.5,98.9,70.2z M61.3,70c1,0.2,2,0.4,3,0.7c-2.2-7.7-4.2-15.4-5.8-23.3L61.3,70z M85.3,69.8
		c0.7,0.2,1.4,0.3,2.1,0.4c0-0.1,0-0.1,0-0.2c-0.1-0.4-0.3-0.9-0.4-1.3c-0.7-0.6-1.4-1.2-2.1-1.8c0.1,0.8,0.2,1.7,0.3,2.5
		C85.2,69.6,85.3,69.7,85.3,69.8z M125,66.1c0,0-0.1,0.1-0.1,0.1c-1.4,1.1-2.7,2.4-3.9,3.7C122.3,68.7,123.7,67.4,125,66.1z
		 M79.5,67.7c1.5,0.7,3.1,1.3,4.7,1.8c-0.4-1.2-0.9-2.4-1.4-3.5c-1.2-0.3-2.3-0.7-3.4-1.1C79.5,65.8,79.5,66.8,79.5,67.7z
		 M46.1,68.4c0.3,0.1,0.5,0.2,0.8,0.3c0.5,0.2,1,0.4,1.4,0.6c-1.9-1.7-3.6-3.6-5.3-5.5c-2.9-3.3-5.3-7-7.7-10.7
		C37.6,59,41.4,64.3,46.1,68.4z M18.7,64.1c5.8,1.2,11.4,2.6,17,4.4c1.8-0.5,3.6-0.8,5.5-0.8c-1.7-1.3-3.4-2.7-5-4.1l-0.1,0.6
		L18.7,64.1z M77.5,66.1c0.3,0,0.5,0.1,0.8,0.2l0.2,0.1c0-0.7-0.1-1.3-0.2-2c-2.1-1-4-2.2-5.7-3.7c-0.8-0.1-1.6-0.2-2.4-0.2
		c0,0,0,0,0,0c1.8,2.2,4,4.2,6.5,5.8C77,66.2,77.2,66.1,77.5,66.1z M89.7,65.9c0.1,0,0.2,0,0.3,0c0.1-2,0.2-4,0.4-6l-0.5-1.1
		c-0.6-0.3-1.2-0.7-1.7-1.1c0,1.9,0,3.9,0,5.8C88.7,64.3,89.2,65.1,89.7,65.9z M88.2,65.8c0.1,0,0.2,0,0.3,0
		c-0.1-0.2-0.2-0.3-0.3-0.5C88.2,65.5,88.2,65.7,88.2,65.8z M86.9,65.7c0.1,0,0.1,0,0.2,0c-0.7-2.3-1.8-4.6-3.3-6.6l0.3,0.5
		C85.2,61.6,86.1,63.7,86.9,65.7z M84.7,65.4c0.4,0.1,0.7,0.1,1.1,0.2c-0.4-1.1-0.9-2.2-1.4-3.2C84.5,63.4,84.6,64.4,84.7,65.4z
		 M133.9,62.3c1.4,1.5,3.6,2.5,5.5,2.6c3.3,0.3,6.5-1,9.4-2.4c0.4-0.2,0.8-0.4,1.3-0.6l-6.6-0.6C140.3,61.8,137.1,62.1,133.9,62.3z
		 M79.2,63.7c0.9,0.4,1.8,0.7,2.8,1c-1-0.7-2-1.3-3-1.9c0.1,0.2,0.1,0.4,0.1,0.5C79.2,63.5,79.2,63.6,79.2,63.7z M83.1,64.3
		c0.2,0.1,0.4,0.3,0.6,0.4c-0.2-1.6-0.3-3.2-0.5-4.9L83,58c-1-1.3-2.2-2.5-3.5-3.6c-3.5-3-7.6-5-11.8-5.8c0.2,2.7,1.1,5.5,2.7,7.9
		c0.2,0,0.4,0,0.6,0c1.2-1.8,2.9-3.3,5.1-4.2l0.4-0.2l0.2,0.3C79.2,56.3,81.3,60.3,83.1,64.3z M78.5,61.5c1.1,0.5,2.1,1.1,3.1,1.8
		c-1.6-3.4-3.4-6.7-5.4-9.9c-1.6,0.7-2.9,1.8-3.9,3.2c0.1,0,0.2,0,0.3,0C75.4,57.2,77.4,59.2,78.5,61.5z M74.7,61.1
		c1,0.8,2.1,1.5,3.3,2.1c-0.1-0.3-0.2-0.6-0.3-0.9C76.7,61.8,75.8,61.4,74.7,61.1z M10.5,60c0,0.1,0.1,0.2,0.1,0.2
		c0.1,0.2,0.2,0.5,0.4,0.7c0.3,0.6,0.6,1.2,1.1,1.6c0.6,0.5,1.4,0.5,2.4,0.5l17,0.1c-2.2-0.5-4.4-1-6.6-1.6
		C20.1,61.4,15.3,60.9,10.5,60z M29.4,61.7c2.1,0.5,4.3,1,6.4,1.4c-0.6-0.5-1.1-1-1.7-1.5C32.5,61.6,30.9,61.7,29.4,61.7z M82.3,53
		c1.5,3,3.2,6,4.9,8.9c0-1.6,0-3.2,0-4.8C85.5,55.9,83.8,54.6,82.3,53z M95.4,60.5c0.9,0.4,1.9,0.8,2.9,1l-1.9-4.9l3.2,4.4
		c0.2-4.5-1.3-9.1-4.1-12.5c-0.6-0.3-1.2-0.5-1.8-0.8c-0.3,1.1-0.6,2.1-0.8,3.2c0.3,1.1,0.6,2.2,0.8,3.2
		C94.3,56.3,94.8,58.4,95.4,60.5z M131.7,60.6c-0.2,0.3-0.5,0.5-0.7,0.8c0.4,0,0.7,0,1.1,0C131.9,61.1,131.8,60.8,131.7,60.6z
		 M128.3,61.3c0.4,0,0.7,0,1.1,0c0.4-0.4,0.7-0.7,1-1.1c-0.8,0-1.8,0.4-2,0.9C128.3,61.2,128.3,61.2,128.3,61.3z M132.7,60.4
		c0.1,0.3,0.3,0.6,0.5,0.9c1.9-0.1,3.9-0.2,5.8-0.4L132.7,60.4z M147.1,60.6l4.6,0.4c1.9-1,3.7-2.1,5.5-3.2
		C153.9,59,150.5,59.9,147.1,60.6z M73.1,59.8c1.3,0.2,2.6,0.6,3.9,1.1c-1-1.6-2.6-2.9-4.5-3.2c-0.3,0-0.5-0.1-0.8-0.1
		c-0.1,0.1-0.1,0.2-0.2,0.3C72,58.6,72.5,59.2,73.1,59.8z M30.9,57.3c1.1,1.1,2.3,2.2,3.5,3.3c0.6,0,1.1-0.1,1.7-0.1
		C35.1,58.6,33,57.3,30.9,57.3z M9.7,58.9c3.3,0.7,6.7,1.1,10.1,1.4c-4.6-1.2-9.2-2.6-13.8-4c-0.1,0.2,0,0.3,0,0.5
		c0.1,0.3,0.4,0.6,0.7,0.9l-0.4-0.9l1.1,0.5C8.3,57.6,9.1,58.2,9.7,58.9z M91.5,58.6c1,0.5,1.9,1,2.7,1.4c-0.5-1.8-1-3.7-1.5-5.5
		c-0.1-0.5-0.2-0.9-0.4-1.4C92.1,54.9,91.8,56.8,91.5,58.6z M70.7,59.5c0.3,0,0.6,0,0.9,0c-0.2-0.2-0.4-0.5-0.6-0.7
		C70.9,59.1,70.8,59.3,70.7,59.5z M67.7,56.5c0.4,0.7,0.8,1.4,1.2,2.1c0.2,0.3,0.4,0.6,0.6,0.9c0,0,0,0,0,0c0.2-0.5,0.4-1,0.7-1.5
		c-0.1-0.2-0.3-0.4-0.4-0.6c-0.3-0.1-0.7-0.1-1-0.3C68.5,57,68.1,56.8,67.7,56.5z M88.2,56.6c0.3,0.2,0.7,0.4,1,0.7l-1-2.2
		C88.2,55.5,88.2,56.1,88.2,56.6z M89.5,46.3L90.8,57c0.3-2,0.7-4,1.1-6c-0.4-1.5-0.8-2.9-1.2-4.4C90.3,46.5,89.9,46.4,89.5,46.3z
		 M67.8,47.6c4.4,0.8,8.8,2.9,12.4,6c0.9,0.8,1.8,1.7,2.6,2.6c-1-2-2-3.9-3-6c-1.5-2-2.7-4.3-3.3-6.8c-2.7-0.3-5.4-0.4-8.1-0.3
		C68,44.6,67.7,46.1,67.8,47.6z M66,52.1c0.8,1.8,1.6,3.5,3.2,4.1c-1.4-2.4-2.2-5.1-2.3-7.7c-0.5-0.1-1.1-0.1-1.6-0.2
		C65.3,49.6,65.6,50.8,66,52.1z M80.7,49.9c1.8,2.4,4.1,4.4,6.5,6.1c0-1,0-2,0.1-2.9l-3.8-8.3c-1.8-0.4-3.5-0.7-5.3-0.9
		C79,45.8,79.8,47.8,80.7,49.9z M88.3,52.8l1.4,3.1l-1.1-9.6C88.4,48.4,88.3,50.6,88.3,52.8z M84.7,44.9l2.6,5.9
		c0.1-1.7,0.1-3.4,0.2-5.1C86.7,45.4,85.7,45.1,84.7,44.9z M99.6,49.5C99.6,49.5,99.6,49.5,99.6,49.5c1.1,0.6,2,1.1,3,1
		c1,0,1.7-0.7,2.1-1.2c0.9-1.3,1.1-3.3,0.5-4.9c-0.4-1.1-1-2.2-1.6-3.3c-0.5-1-1.1-2-1.5-3C100.9,41.8,100.1,45.6,99.6,49.5z
		 M91.8,47.1c0.2,0.7,0.4,1.3,0.6,2c0.1-0.5,0.3-1.1,0.4-1.6C92.5,47.3,92.1,47.2,91.8,47.1z M63.6,48.3c0.3,0.2,0.5,0.5,0.7,0.8
		c0-0.3-0.1-0.5-0.1-0.8C64,48.3,63.8,48.3,63.6,48.3z M65,47.3c0.6,0,1.1,0.1,1.7,0.2c0-1.7,0.3-3.3,0.8-4.9l0.1-0.3l0.3,0
		c2.8-0.1,5.6,0,8.3,0.2c-0.1-0.7-0.2-1.3-0.2-2l-0.2-3.8l1.1,3.6c0.3,0.8,0.5,1.6,0.8,2.4c1.7,0.2,3.5,0.5,5.2,0.8l-5.5-12.2
		c-0.6-1.2-0.8-3-0.1-4c0.2-0.4,0.6-0.6,1-0.7c0-0.5,0-0.9-0.1-1.4c-1.4,0.3-2.7,0.7-3.9,1.4c-3.4,1.9-6.2,5.2-7.9,9.4
		C65.2,39.6,64.7,43.5,65,47.3z M93.5,45.2l0.6,0.5c0.4,0.3,0.7,0.6,1,1c-1.9-3-3.5-6.1-5-9.4c-0.4,0.4-0.9,0.8-1.5,1
		c1.1,2.4,2,5,2.8,7.6c0.5,0.2,1.1,0.4,1.6,0.6c0.1-0.2,0.1-0.4,0.2-0.6L93.5,45.2z M89.4,45.2c0.3,0.1,0.6,0.2,0.9,0.3
		c-0.4-1.3-0.8-2.5-1.3-3.8L89.4,45.2z M84.2,43.8c1.2,0.3,2.3,0.6,3.5,0.9c0.1-1.2,0.2-2.5,0.3-3.7l0.7,0c-0.3-0.8-0.6-1.6-1-2.3
		c-0.2,0.1-0.5,0.1-0.7,0.1c-2,0.2-4-0.6-5.6-1.2L84.2,43.8z M81.9,36.7c1.5,0.6,3.3,1.3,5,1.1c0.1,0,0.3,0,0.4-0.1
		c-1.8-3.6-4-6.9-7.1-9.6c-0.2-0.2-0.4-0.4-0.7-0.5C79.8,30.8,80.6,33.8,81.9,36.7z M79.4,26.6c0.5,0.1,1,0.5,1.4,0.8
		c3.2,2.8,5.6,6.2,7.4,10c0.6-0.3,1.1-0.7,1.5-1.1c-1.4-3.3-2.5-6.6-3.4-10.1c-2-1.1-4.5-1.5-6.9-1.2C79.4,25.5,79.4,26.1,79.4,26.6
		z M88.6,30.5c0.5,1.5,1.1,3,1.7,4.5c0-0.1,0-0.1,0-0.2c0-0.8-0.4-1.7-0.8-2.5L88.6,30.5z M78.5,27.6c-0.1,0.1-0.2,0.1-0.3,0.3
		c-0.4,0.6-0.3,2,0.2,3.1l1.4,3.1C79.2,31.9,78.7,29.8,78.5,27.6z M80.9,23.9c1.7,0,3.4,0.3,5,1c-0.7-3.7-2.4-7.3-4.8-10.2
		c-1.1,3-1.6,6.1-1.7,9.3C79.9,24,80.4,23.9,80.9,23.9z"/>
	<path fill="#DD1F26" d="M124.2,137.1l-0.6,0c-13.9-0.3-27.6-2.6-40.9-6.8l-1.6-0.5l1.6-0.4c10.5-2.9,21.2,0.2,33,4.4l-17.2-27.3
		c-1.4-2.2-2.8-4.3-4.3-6c-0.8,2.2-1.6,4.4-2.4,6.5c-2.5,6.6-5,13.4-5.8,20.5l-1,0c-0.2-8.5-0.1-16.6,3.7-23c-2.3,1.3-4.6,2.7-6.9,4
		c-2.8,1.7-5.7,3.6-7.8,6.1c0.7,3.2,0.6,6.6-0.8,9.7l-0.2,0.4l-0.4-0.2c-0.9-0.3-1.8-0.7-2.7-1.1c0,0,0,0.1,0,0.1
		c-0.4,1.6-0.9,3.2-1.5,4.7c-0.4,1-1.3,2-2.3,2.3c-0.5,0.1-1,0-1.4-0.4c-0.9-0.8-0.5-2.2-0.3-2.8c0.6-2,1.1-4,1.5-6.1
		c-0.4-0.3-0.8-0.6-1.3-0.9c0.1,0.4,0.3,0.8,0.4,1.3l0.1,0.4l-0.4,0.2c-1.8,0.6-3.9,0.4-5.4-0.7l-0.2-0.1l0-0.2
		c-0.2-1.9-0.3-3.7-0.3-5.5c-0.9-0.8-1.8-1.6-2.7-2.4l-12.7-11.4c-0.8-0.7-1.6-1.5-1.9-2.5c0,0,0,0-0.1,0c-0.6,0.1-1.3,0.3-1.6,0.7
		c-0.2,0.3-0.2,0.8-0.3,1.1c0,3.9,2.7,7.6,8.1,11.2c0.5,0.3,1,0.6,1.5,1c0.5,0.3,1.1,0.7,1.6,1c0.6,0,1.2,0.1,1.8,0.1l0.4,0l0,0.4
		c0,0.4,0.1,0.8,0.1,1.2c2.3,1.7,4.4,3.7,5.6,6.4l0.1,0.3l-3.1,3.3c-0.1,0.1-0.3,0.3-0.6,0.5c2.5,3.7,7.3,5.9,11.7,5
		c0.4-0.1,0.9-0.2,1.4-0.3c2.1-0.5,4.4-1,6.2,0.4l0.9,0.7l-7.8,0.9c-4.8,0.6-9.7,1.1-14.5,1.7c0,0.2-0.1,0.4-0.1,0.6l-0.1,0.7
		l-0.6-0.4c-0.4-0.2-0.7-0.5-1-0.8c-4.1,0.5-8.1,0.9-12.2,1.4l-1.2,0.1l0.8-0.9c4.9-5.7,6.8-13.7,5.1-21l0.9-0.2l3.8,13.2
		c0.7,2.5,1.5,4.9,3.1,6.4c0.2,0,0.4,0,0.6-0.1c0.7-5.9,0.8-11.8,0.2-17.6c-0.6-0.4-1.2-0.8-1.8-1.2c-10.4-0.7-20.6-5-28.4-12
		c-2.2-1.5-4.3-3.2-6.3-4.9c-1,0.2-2,0.3-3,0.3h-0.1l-0.1-0.1C11.7,98,11.2,97,11,95.8c-0.1-0.7,0-1.4,0.2-2.1
		c-1.4-1.6-2.8-3.2-4.1-4.9l-0.1-0.1l0-0.1c-0.3-1.6,0.5-3,1.2-4.3c0.2-0.4,0.4-0.7,0.6-1.1c2.3-4.6,0.6-9.6-1.2-14.9
		c-1-2.8-1.9-5.7-2.3-8.7c-0.3-1.3-0.3-2.6,0-4l1,0.1c-0.1,1.2-0.1,2.4,0,3.7c0.6,3,2.4,5.9,4.3,8.7c4.4,6.6,8.7,12.5,14.2,16.3
		c0.5-0.4,1.1-0.8,1.6-1.2c-4.3-7.2-9-14.2-14-20.8l-1.2-1.5l1.7,0.8c8.2,3.7,16,8.1,23.5,13c2-1.5,4.1-2.7,6.3-3.6
		c-4.4-4.5-8.6-9.3-11.2-15l-0.2-0.5l0.5-0.1c3.7-1,7,2,9.4,4.8l15,16.6c1.4,1.1,2.5,2.6,3.6,4l-0.7,0.6l-3.5-3.9
		c-0.3-0.2-0.6-0.5-1-0.7c-1.3-0.7-3-1.2-4.5-0.8c0.4,0.8,0.7,1.7,1.1,2.5c1.3,1.5,2.5,3,3.7,4.5c1.4,0.4,2.9,0.8,4.3,1.1l0.2,0
		c0.1-0.2,0.2-0.4,0.3-0.7c0.6-1.4,1.3-2.7,1.9-4c0.7-10.3,1.2-20.8,0.6-31.1c-0.1-1.7-0.2-3.5-0.5-5.4c-4.3-6.1-7.8-12.8-10.3-19.8
		c0,0,0,0,0,0l0.9-0.3c0,0,0,0,0,0c0,0,0,0.1,0.1,0.1c0.2,0,0.5-0.1,0.6-0.2c0.1-0.1,0-0.1,0-0.1l-1-2.2l1.8,1.7
		c2.4,2.2,4.1,4.9,5.4,7.7c4.1,1.5,7.1,5,10,8.3c2.5,2.9,5.1,6,8.4,7.6c-1.5-6.9-3.1-15.3-0.5-22.7c0.6-1.6,1.3-3.3,2.1-4.8
		c0.5-1.1,1-2.1,1.4-3.1c0.2-3.2,0.5-6.4,0.9-9.6l0.2-1.9l0.7,1.8c1.3,3.3,0.5,6.6-0.9,9.9c-1.4,21,0.9,42.5,6.7,62.6
		c3.1,0.2,6.2,0.6,9.2,1.1c0.4-7.3,0-14.8-0.5-22.1c-0.3-5.1-0.6-10.3-0.6-15.3l-0.8,1.4l-0.1-1.7c0-0.5-0.1-1-0.1-1.5
		c-0.3-3.8-0.7-9.1,2.2-11.9c2.5-2.4,6.9-3.3,10.8-4.1c1.2-0.2,2.3-0.5,3.3-0.7l0.3,0.9c-1,0.3-2.1,0.5-3.3,0.7
		c-3.8,0.8-8,1.7-10.3,3.8c-2.5,2.4-2.2,7.4-1.9,11.1c0,0,0,0,0,0.1c0,0,0-0.1,0.1-0.1l0.9-1.8l0,2.1c-0.1,5.5,0.3,11.3,0.6,17
		c0.4,7.4,0.9,14.9,0.4,22.3c2.4,0.4,5,0.7,7.4,0.9c7,0.6,12.5-0.4,16.8-2.9c0.6-0.4,1.2-0.8,1.8-1.3c0.4-0.3,0.7-0.6,1.1-0.9
		c0.4-1.1,0.8-2.3,1.2-3.4c1.2-3.1,2.4-6.4,2.9-9.7l0.3-2.2l0.6,2.1c1.2,4.1,0,8.3-2.4,11.5c1.8-1.2,3.5-2.4,5.3-3.5
		c2.3-1.5,5.1-2.7,7.7-3.8c4.3-1.8,8.3-3.5,11-6.7c1.9-2.3,4.8-3.7,7.8-3.8l1.6-0.1l-1.3,0.9c-2.4,1.7-3.2,5-3.8,8.3
		c-0.3,1.8-0.6,3.6-1,5.3c-0.4,3.1-0.8,6.1-1,9.2c-0.1,1.7-0.2,3.2,0.2,4.6c0.2,0.5,0.4,0.9,0.7,1.3c2.3,0.6,4.4,2,5.9,3.9
		c0.5,0.3,1,0.5,1.4,0.8l-0.4,0.8c0.1,0.2,0.2,0.5,0.3,0.7l0.2,0.5l-0.6,0.1c-4.3,0.9-8.1,3.6-11.6,6.2c-9.6,7.3-18.6,15.4-27,24
		c-0.7,4.8-0.6,9.6,0.1,14.5L124.2,137.1z M84.7,129.9c12.5,3.7,25.4,5.8,38.4,6.2c-0.6-4.3-0.6-8.6-0.2-12.9l-1.3,1.4l2.1-6.3
		l0.9,0.3c-0.1,0.6-0.2,1.2-0.3,1.8c8.1-8.3,16.9-16.1,26.2-23.1c3.4-2.6,7.1-5.3,11.4-6.3c-0.2-0.4-0.4-0.7-0.6-1.1
		c-1.5-0.6-3-1.4-4.3-2.3c-1.5-0.7-3.1-1.4-4.6-2l-2-0.8l2.1-0.1c0.7,0,1.3,0,2,0.1c-0.1-0.2-0.2-0.5-0.3-0.8
		c-0.3-0.8-0.4-1.6-0.4-2.5c-0.2,1-0.4,2-0.5,3l-1-0.2l2.9-16.5c0.5-3.6,1.1-7.1,1.9-10.6c-1.4,0.6-2.8,1.5-3.7,2.7
		c-2.8,3.4-7.2,5.2-11.4,7c-2.6,1.1-5.3,2.2-7.5,3.7c-2.6,1.7-5.2,3.5-7.9,5.2c-0.6,1.6-1,3.3-1.3,5c0,0.1,0,0.2,0,0.3
		c4.5-2.3,9.2-4.1,14.1-5.4c1.1-2.5,2.2-5,3.4-7.5l0.9,0.4c-1.1,2.2-2.1,4.5-3.1,6.8c1.2-0.3,2.4-0.5,3.6-0.8l1-0.2l-0.5,0.9
		c-2.3,4.4-5.2,8.4-8.6,11.9c-0.2,0.7-0.5,1.4-0.7,2.1c0.9-0.8,1.8-1.7,2.7-2.5c2.7-2.6,5.3-5.5,5.9-9c0,0,0,0,0,0c0,0,0,0,0,0
		s0,0,0,0l1,0.1c0,0,0,0,0,0l0,0c0,0,0,0,0,0c0,0,0,0,0,0c-0.9,6.3,0.6,13,4.3,18.2l0.7,1.1l-1.3-0.3c-4.9-1.2-9.9-2-15-2.2
		c-0.2,0.7-0.4,1.4-0.6,2.1l-0.1,0.4l-0.4-0.1c-1.2-0.3-2.3-0.8-3.3-1.4c-0.7,0.6-1.4,1.1-2.1,1.7c-5,4.1-10.2,8.3-14.7,13
		c2.8,6.7,4.7,13.6,5.7,20.8l0.2,1.6l-1.1-1.2c-4.3-4.8-7.8-10.5-9.9-16.6l-0.1-0.3l0.2-0.2c1.2-1.5,2.5-3,3.8-4.4
		c-1.1-2.7-2.4-5.3-3.8-7.8c-2.4-4.2-5.7-9.1-10.2-12.3c-0.1,0.5-0.2,0.9-0.3,1.4c-0.6,2.7-1.4,5.4-2.3,8c2,2,3.5,4.5,4.8,6.5
		l18.7,29.7l-1.3-0.5C105.2,131,94.8,127.7,84.7,129.9z M45.3,120.3c0,5.5-1.9,10.9-5.2,15.2c3.4-0.4,6.8-0.8,10.3-1.2
		c-1.4-1.7-2.2-4-2.8-6.3L45.3,120.3z M53.7,126.8c-0.1,2.4-0.3,4.8-0.5,7.2c3.8-0.4,7.7-0.9,11.5-1.3c-4.1-0.1-8.1-2.4-10.3-5.8
		c-0.1,0-0.3,0-0.4,0C53.9,126.9,53.8,126.8,53.7,126.8z M71.7,131.8c-1,0-2,0.2-3.1,0.5c-0.1,0-0.2,0-0.3,0.1l4.2-0.5
		C72.2,131.8,72,131.8,71.7,131.8z M108.3,115c1.9,5.4,4.8,10.5,8.5,14.8c-1-6.4-2.8-12.6-5.2-18.6
		C110.4,112.4,109.3,113.7,108.3,115z M66.9,121.6c-0.4,2-0.9,4-1.5,5.9c-0.2,0.7-0.4,1.5,0,1.8c0.2,0.1,0.3,0.2,0.5,0.1
		c0.6-0.1,1.3-0.9,1.6-1.7c0.6-1.5,1-3.1,1.4-4.6c0-0.1,0.1-0.2,0.1-0.3C68.3,122.5,67.6,122.1,66.9,121.6z M54,124.8
		c0.1,0,0.1,0,0.2,0l0.2,0l0.1,0.2c0.1,0.2,0.2,0.4,0.3,0.6c0.1-0.1,0.3-0.2,0.4-0.4l2.7-2.8c-1-2.1-2.6-3.7-4.4-5.2
		c0.2,2.5,0.3,5,0.3,7.5C53.8,124.8,53.9,124.8,54,124.8z M70.2,122.4c0.8,0.4,1.5,0.7,2.3,1c1-2.6,1.2-5.3,0.7-8
		c-0.4,0.5-0.8,1.1-1.1,1.7C71.3,118.8,70.7,120.6,70.2,122.4z M92,101.5l-1.3,1.8C86.9,108.4,86,115,86,122
		c1.2-5.3,3.1-10.4,5-15.4c0.9-2.3,1.7-4.6,2.5-7c-1.3-1.3-2.8-2.4-4.5-3c-4-1.5-8.5-0.4-12.8,0.8c-2.4,0.7-4.8,1.4-7.1,2.5
		c0,1.7-0.1,3.3-0.2,4.9c2.3,2.3,4,5.3,5,8.5c2.2-2.3,4.9-4.1,7.6-5.8c2.8-1.7,5.7-3.4,8.6-5L92,101.5z M67.1,120.6
		c0.7,0.5,1.5,0.9,2.3,1.3c0.5-1.8,1.1-3.6,2-5.3c0.5-0.9,1-1.7,1.7-2.4c-0.8-2.9-2.3-5.7-4.3-8C68.4,111.8,67.9,116.4,67.1,120.6z
		 M60.1,120.7c1.2,0.7,2.6,0.9,3.9,0.6c-0.2-0.7-0.5-1.4-0.7-2.1c-1.2-0.9-2.3-1.8-3.5-2.8C59.9,117.8,60,119.3,60.1,120.7z
		 M64.1,118.6c0.7,0.5,1.4,1,2,1.5c0.8-4.2,1.3-9,1.6-14.6c0,0,0-0.1,0-0.1c-0.9-0.9-1.8-1.6-2.8-2.3c-0.1-0.1-0.3-0.2-0.4-0.2
		c-0.9,0.8-1.7,1.7-2.4,2.7c-1,1.6-1.7,3.3-2,5.2C61.8,113.2,63.1,115.8,64.1,118.6z M59.8,115.1c0.9,0.8,1.8,1.6,2.8,2.3
		c-0.8-1.8-1.6-3.6-2.6-5.3C59.9,113.1,59.9,114.1,59.8,115.1z M42.6,99.1c0.3,0.7,1,1.4,1.6,1.9l12.7,11.4c0.7,0.6,1.4,1.2,2.1,1.9
		c0-1.2,0.1-2.3,0.3-3.4c-2.9-4.6-6.5-8.8-10.7-12.2C46.6,98.7,44.6,98.8,42.6,99.1z M31.2,108.5c5.4,3,11.5,5,17.6,5.6
		c0,0-0.1,0-0.1-0.1c-0.5-0.3-1-0.6-1.5-1c-1.6-1.1-3-2.1-4.2-3.2c0.3,0.8,0.7,1.5,0.9,2.3l0.3,0.8l-0.9-0.2
		C39.3,111.9,35.2,110.4,31.2,108.5z M22.8,102.5c6.1,4.2,12.9,7.4,20,9.2c-3.1-8-10.3-14.2-18.7-15.9c-0.4-0.1-0.8-0.1-1.2-0.2
		c-1.5,0.8-3.1,1.5-4.7,2.1C19.6,99.4,21.1,101,22.8,102.5z M50,98.7c3.7,3.1,6.9,6.8,9.5,10.8c0.4-1.6,1-3.2,2-4.6
		c0.7-1,1.4-1.9,2.3-2.7C59.9,100,55.2,98.8,50,98.7z M97.4,89c4.7,3.3,8.3,8.4,10.8,12.9c1.4,2.5,2.6,5,3.7,7.5
		c4.5-4.7,9.6-8.8,14.5-12.8c0.6-0.5,1.3-1,1.9-1.6c-0.2-0.1-0.3-0.3-0.5-0.4c-0.4,0-0.7,0-1.1,0c-1.2,1.2-2.7,2-4.4,2.3l-3.3,0.6
		l3-1.5c1.1-0.6,2.2-1.1,3.2-1.8l-0.1-0.5l1.4-0.3c0,0,0.1-0.1,0.1-0.1c-2.1-2.8-3-6.8-2.8-10.7c-3,1.6-5.9,3.5-8.6,5.6
		c-0.4,0.3-0.8,0.6-1.2,1c-2.1,1.7-4.4,3.4-7,4.4l-0.7,0.3l0.1-0.8c0.5-4.3,4.1-7.2,7.4-9.7c1.6-1.2,3.3-2.4,5-3.6
		c-3.6,1.1-7.9,1.5-12.9,1.1c-2.5-0.2-5-0.6-7.4-0.9C98.4,83.1,98,86.1,97.4,89z M65.4,102.1c0,0,0.1,0.1,0.1,0.1
		c0.8,0.5,1.6,1.2,2.3,1.8c0.1-1.2,0.1-2.3,0.1-3.5C67.1,101,66.2,101.5,65.4,102.1z M24.4,94.9c5.7,1.2,10.8,4.3,14.6,8.6
		c-0.2-0.8-0.3-1.6-0.3-2.4c0-0.5,0.1-1.1,0.4-1.7c0.6-0.8,1.7-1,2.3-1.1c0,0,0,0,0,0c0-0.2,0-0.4,0.1-0.6c0.2-0.8,0.7-1.4,1.5-1.7
		c1.7-0.6,4.1,0.3,5.5,1.4c0.1,0.1,0.2,0.2,0.3,0.2c0.1,0,0.1,0,0.2,0c5.9,0,11.3,1.3,15.6,3.9c1.1-0.8,2.2-1.6,3.5-2.2
		c0-1.3,0.1-2.7,0.1-4.1c-2.8-2.2-5.4-4.7-7.7-7.5c-0.5-0.6-1-1.3-1.1-2.1c0-0.2,0-0.4,0-0.6l-0.2-0.1c-1.1-0.3-2.1-0.6-3.2-0.8
		c1.4,2.1,2.6,4.4,3.6,6.8l1,2.6l-1.8-2.2c-2.1-2.5-4-5.2-5.7-8.1c-1.6-0.4-3.1-0.8-4.7-1.2l-0.2-0.1c-0.9-0.6-1.4-1.7-1.4-2.9
		c0-1.2,0.5-2.3,1.2-3.1c-1-1-2-2.1-3-3.1c-0.4-0.5-0.9-0.9-1.3-1.4c-2.2,0.8-4.3,2-6.2,3.4c7.1,4.7,13.9,10,20.2,15.8l1.2,1.1
		l-1.7-0.3c-8-1.4-18-3.2-26.6,0.1c-2,0.7-3.9,1.8-5.8,2.8C24.7,94.8,24.5,94.8,24.4,94.9z M69.1,96.1c0,1,0,1.9,0,2.8
		c2.2-1,4.6-1.7,6.8-2.4c4.4-1.3,9.1-2.4,13.4-0.7c1.7,0.6,3.2,1.7,4.5,2.9c0.8-2.5,1.6-5,2.1-7.5c0.1-0.6,0.3-1.2,0.4-1.8
		c-2.4-1.6-5.1-2.7-8.1-3c-0.2,0-0.4,0-0.6-0.1c-0.8-0.1-1.7-0.1-2.6-0.5c-0.9-0.4-1.7-1-2.5-1.8c-4.1-3.8-8.6-8.5-11.3-14.3
		c-1-2-1.6-4.1-2-6.2c-0.6,2.1-1.2,4.1-2,6.2l0.5,0.1c2.1,0.6,3.9,2.3,4.5,4.4c0.4,1.4,0.4,2.9,0.3,4.3c-0.3,6.1-0.6,12.2-1,18.3
		l0,0.9l-0.7-0.5C70.2,96.9,69.6,96.5,69.1,96.1z M17.1,98.1c0.2,0.2,0.4,0.3,0.5,0.5c-0.1-0.2-0.3-0.3-0.4-0.5
		C17.1,98.1,17.1,98.1,17.1,98.1z M44.2,96.8c-0.3,0-0.6,0-0.9,0.1c-0.5,0.2-0.8,0.5-0.9,1c0,0.1,0,0.1,0,0.2
		c1.6-0.2,3.2-0.4,4.8-0.5C46.3,97.2,45.2,96.8,44.2,96.8z M12,94.6C12,95,12,95.4,12,95.7c0.1,0.6,0.3,1.4,1,2c0.7,0,1.3-0.1,2-0.2
		C14,96.6,13,95.6,12,94.6z M12.3,93.5c1.2,1.3,2.5,2.6,3.8,3.8c0.1,0,0.2-0.1,0.4-0.1c0,0,0,0,0,0l-0.2-0.3l0.3-0.3
		c1.3-1.5,3.5-2.2,6.2-1.9c0.5-0.3,1.1-0.6,1.6-0.8c1.9-1,3.9-2,5.9-2.8c8.2-3.1,17.6-1.8,25.5-0.4c-6-5.4-12.4-10.3-19.1-14.8
		c-1.8,1.4-3.5,2.9-5.2,4.4c-1.2,1.1-2.4,2.1-3.6,3.2c0.7,1.2,1.4,2.5,2.1,3.7l0.7,1.2l-1.3-0.5c-1.5-0.6-3-1.4-4.4-2.2
		c-1.6,1.1-3.2,2.1-5,2.9c-0.6,0.2-1.1,0.5-1.7,0.7c-1.8,0.7-3.5,1.4-4.8,2.7C12.9,92.4,12.6,92.9,12.3,93.5z M17.5,96.9
		C17.5,96.9,17.5,96.9,17.5,96.9c1.1-0.3,2.2-0.8,3.3-1.3C19.6,95.7,18.4,96.1,17.5,96.9z M129.9,95c0.7,0.4,1.4,0.8,2.3,1
		c0.1-0.5,0.3-1,0.4-1.5c-0.7,0-1.4,0-2.1,0C130.2,94.7,130,94.9,129.9,95z M69.1,94.8c0.5,0.4,1,0.8,1.6,1.2
		c0.3-5.8,0.6-11.6,0.9-17.4c0.1-1.3,0.1-2.7-0.2-4c-0.5-1.5-1.7-2.8-3.1-3.5C68.8,79.7,69.1,87.5,69.1,94.8z M133.8,93.6
		c4.6,0.2,9.2,0.8,13.7,1.9c-2.6-4.2-4-9.1-4-14.1c-1.2,2.2-3,4.2-4.9,5.9c-1.3,1.2-2.6,2.4-4,3.6C134.3,91.9,134.1,92.8,133.8,93.6
		z M60.3,85.4c0,0.1,0,0.1,0,0.2c0.1,0.6,0.5,1.1,0.9,1.6c2.1,2.5,4.4,4.8,6.9,6.8c0-7.3-0.3-15.1-1-23.6l0-0.3
		c-0.9,2.3-1.9,4.5-3,6.6c-0.4,0.7-0.7,1.4-1.1,2.1c-0.1,0.3-0.3,0.5-0.4,0.8c-0.1,1.9-0.3,3.7-0.4,5.6l0,0.6L60.3,85.4z
		 M128.2,93.6C128.2,93.6,128.2,93.6,128.2,93.6c0.6,0,1.3,0,1.9,0c1.2-1,2.5-2.1,3.7-3.1c0.2-0.6,0.4-1.2,0.6-1.8
		C132.4,90.4,130.4,92.1,128.2,93.6z M131.6,93.6c0.4,0,0.8,0,1.2,0c0.1-0.5,0.3-1,0.4-1.4C132.7,92.7,132.1,93.1,131.6,93.6z
		 M125,82.2c-0.4,3.8,0.5,7.9,2.6,10.7c2.7-1.8,5.2-3.9,7.5-6.2c1.1-3.3,2.4-6.6,3.7-9.9C134,78,129.3,79.8,125,82.2z M8,88.4
		c1.1,1.5,2.3,3,3.6,4.4c0.3-0.6,0.6-1.1,1.1-1.5c1.4-1.4,3.3-2.2,5.1-2.9c0.6-0.2,1.1-0.4,1.7-0.7c1.6-0.7,3.1-1.6,4.5-2.6
		c-6.1-4.2-10.5-10.8-14.2-16.3c-0.7-1-1.4-2.1-2-3.2c0.3,0.8,0.5,1.7,0.8,2.5c1.8,5.2,3.6,10.7,1.2,15.7c-0.2,0.4-0.4,0.7-0.6,1.1
		C8.5,86,7.9,87.2,8,88.4z M123.4,77.8c-3,2.1-6,4.2-8.9,6.4c-2.9,2.2-6.1,4.7-6.9,8.2c2.1-1,4.1-2.5,5.9-3.9c0.4-0.3,0.8-0.7,1.3-1
		c2.9-2.2,6-4.3,9.3-6c0-0.3,0.1-0.7,0.2-1c0.2-1.3,0.6-2.6,1-3.9c-0.5,0.4-0.9,0.7-1.4,1C123.7,77.7,123.5,77.8,123.4,77.8z
		 M69.9,61.2c0.2,2.7,1,5.6,2.2,8.3c2.7,5.6,7.1,10.2,11.1,14c0.7,0.7,1.4,1.3,2.2,1.6c0.7,0.3,1.5,0.3,2.3,0.4c0.2,0,0.4,0,0.6,0.1
		c3,0.3,5.7,1.4,8.2,2.9c0.5-2.8,0.9-5.7,1.1-8.6c-3.1-0.5-6.4-0.9-9.6-1.1l-0.3,0l-0.1-0.3c-5.6-19.5-8-40.3-7-60.7
		c-0.1,0.3-0.3,0.5-0.4,0.8c-0.7,1.6-1.5,3.2-2,4.8c-2.6,7.6-0.8,16.2,0.7,23.2l0.2,0.9L78.3,47c-4-1.7-6.9-5-9.7-8.3
		c-2.7-3.1-5.3-6.1-8.7-7.7c0.2,0.4,0.3,0.9,0.5,1.3c1.9,3.4,3,7.3,2.9,11.3l0,1.5L63,44.6c0.1,1.3,0.2,2.6,0.3,3.7
		c0.5,9.7,0.1,19.5-0.5,29.1c0.2-0.3,0.3-0.6,0.5-0.9c2.5-4.9,4.4-10.1,5.6-15.4c-0.2-3.3,0.3-6.5,1.6-9.2l1.2-2.6l-0.3,2.8
		C71.1,55.2,70.6,58.2,69.9,61.2z M54.3,83.8c0.8,1.3,1.7,2.6,2.6,3.9c-0.7-1.3-1.5-2.6-2.4-3.8C54.4,83.9,54.3,83.9,54.3,83.8z
		 M157.4,86.8c0.3,0.2,0.7,0.3,1,0.5c-0.4-0.3-0.9-0.5-1.3-0.7C157.2,86.6,157.3,86.7,157.4,86.8z M25.7,85c0.8,0.5,1.7,1,2.6,1.4
		c-0.4-0.8-0.9-1.6-1.3-2.3C26.5,84.4,26.1,84.7,25.7,85z M139.9,76.4c-1.2,2.8-2.2,5.6-3.3,8.5c2.5-2.8,4.7-5.9,6.5-9.2
		C142.1,75.9,141,76.1,139.9,76.4z M60.5,84.5l0.9,0.2c0.1-0.9,0.1-1.8,0.2-2.7c-0.3,0.6-0.6,1.3-0.9,2
		C60.6,84.1,60.5,84.3,60.5,84.5z M14.4,63.3C19,69.5,23.3,76,27.2,82.6c1.2-1,2.4-2,3.5-3c1.6-1.5,3.3-2.9,5-4.3
		C28.9,70.8,21.8,66.8,14.4,63.3z M48.6,81.3c1.2,0.3,2.4,0.6,3.6,1c-0.6-1.1-1.1-2.1-1.7-3.2c-0.6-0.7-1.3-1.4-1.9-2.1
		c-0.6,0.6-0.9,1.5-0.9,2.4C47.7,79.8,47.8,80.7,48.6,81.3z M44.7,71.5c0.3,0.3,0.7,0.7,1,1c1,1,2.1,2.1,3.1,3.1
		c0.1-0.1,0.2-0.1,0.3-0.2c-0.4-0.9-0.7-1.9-1.1-2.9c-0.2-0.7-0.4-1.2-0.9-1.4c-0.4-0.2-0.8-0.1-1.3,0C45.4,71.3,45,71.4,44.7,71.5z
		 M51.5,74.9c0.8,0,1.5,0.1,2.3,0.4L40.7,60.8c-2.1-2.4-4.9-5-7.9-4.6c2.6,5.5,6.8,10.1,11.1,14.5c0.5-0.2,1.1-0.3,1.7-0.5
		c0.6-0.1,1.3-0.2,1.9,0.1c0.8,0.4,1.1,1.3,1.4,2c0.3,0.9,0.7,1.9,1,2.8C50.4,75,51,74.9,51.5,74.9z M130.3,64.5
		c-0.6,2.5-1.5,4.9-2.4,7.3c-0.1,0.3-0.3,0.7-0.4,1C129.3,70.4,130.4,67.5,130.3,64.5z M157.3,56.9l0.7,0.1l-0.2,0.9
		c0.3-0.5,0.6-1,1-1.4C158.4,56.6,157.8,56.8,157.3,56.9z M52.8,23.9c2.3,6,5.2,11.7,8.7,17c-0.4-2.7-1.1-5.4-2-8.1
		c-0.5-0.9-1.1-1.8-1.7-2.6L56.9,29l1.2,0.3c-1.1-2.2-2.5-4.3-4.2-6C53.6,23.6,53.2,23.8,52.8,23.9z M82.3,8.5
		c-0.1,0.9-0.2,1.7-0.2,2.6C82.3,10.3,82.3,9.4,82.3,8.5z"/>
	<path fill="#DD1F26" d="M72.8,20.3l-1-0.2c0.5-2.4,1.6-4.6,2.7-6.8L81.3,0l0.3,0.4l0.1-0.2c2.5,1.7,3.6,4.7,4.6,7.2l0.5,1.2
		c0.8,1.6,1.4,3.2,1.9,5l-0.9,0.3L85.9,9c-1.2-2.5-2.8-4.9-4.4-7.1l-6.1,11.9C74.4,15.9,73.3,18,72.8,20.3z"/>
	<path fill="#DD1F26" d="M107.9,134.6l-2.2-2.7c-3.7-4.6-7.5-9.5-12.5-12.8l0.5-0.8c2.9,1.3,5.8,2.7,8.6,4.3
		c-6.3-19.8-7.3-41.2-8.3-61.9L92.7,58c-0.5,0.8-1.3,1.4-2.3,1.5c-0.1,0-0.2,0-0.3,0c-4.3,20.2-5.6,38.1-4,54.5l0.1,0.9l-0.8-0.4
		c-2.6-1.4-5.3-2.7-7.9-4.2c0.3,7.1,1.4,14.1,3.3,20.8l0.5,1.9l-1.4-1.5c-3.2-3.5-6.5-7.1-9.7-10.6l-0.7,0.4
		c-5.9-8.6-15.1-14.1-22.5-17.9c-2.6-1.4-5.3-2.7-7.9-3.9c-0.7-0.4-1.5-0.7-2.2-1.1l1.4,7.8l-0.9,0.2c-0.6-1.9-2.2-3.2-3.8-4.6
		c-0.3-0.3-0.6-0.5-0.9-0.8c-1.7-1.5-3.7-3.9-3.3-6.5c-3-1.1-5.8-2.8-8.2-5l0.6-0.8c2.6,1.8,5.4,3.4,8.2,4.9c0,0,0,0,0,0l0.4,0.1
		l0,0.1c1.7,0.9,3.5,1.8,5.2,2.7l0-0.2c-0.1-0.5-0.3-1.5,0.4-2.1c0.1-0.1,0.1-0.1,0.2-0.2c-6.8-9.4-15.7-17.3-25.9-22.9l-1.8-1
		l15.1,0.6l0.1,0.2c5.2,7.2,12.5,12.5,19.5,17.2c10.7,7.3,21.8,14.1,33.2,20.3c-0.5-15,2.3-30.2,8.3-44c-0.3,0.2-0.7,0.3-1.1,0.5
		c-2,0.6-4.3,0.4-6.6-0.7c-4.9-2.3-8.3-8.1-8.7-14.7c-0.3-6,1.6-11.9,3.3-17.2l0.4-1.1l0.5,1.1c2.7,5.3,5.7,10.4,9,15.4L78,24.3
		l1.2,1.6c4.2,5.9,8,12,11.1,18.5c-0.2-0.4-0.3-0.8-0.5-1.2c-0.4-1-0.8-1.9-1.2-2.9c-2.6-6.6-3.6-13.8-3-20.8l0.4-4.8l0.5,4.8
		c0.4,3.5,1.7,6.8,3.8,9.7c2.3,3.1,5.3,4.8,8,4.5c3-0.4,5-2.8,7.2-5.4c2-2.5,4.1-5,7.2-5.7l1-0.2l-0.4,0.9
		c-3.6,7.8-5.9,16.2-6.8,24.8c0,1.5-0.1,3.1-0.4,4.6l-1-0.1c0.1-1.5,0.2-3,0.4-4.5c0-2.6-0.5-5.2-1.4-7.6c-1.2-0.5-2.7,0.2-3.5,1.2
		c-0.9,1.2-1.3,2.7-1.6,4.2c-1.1,5.7-1.5,11.5-1.2,17.3l0.1,2.8l1.7,3.2c2.2,4.2,4.5,8.6,7.6,12.4c1.2,1.5,2.6,2.8,4,4.1
		c2.6-1,5.3-2,8.1-2.7c2-2.5,5.9-2.7,8.7-1.5c2.6-0.2,5.1-0.2,7.5,0.1c0-1.3-0.2-2.5-0.5-3.8c-1.8-1.4-3.2-3.2-4.6-5
		c-1.9-2.4-3.7-4.6-6.2-5.9l-2.2-1.1l2.5,0.2c5.9,0.5,11.8,1.1,17.6,1.9l0.5,0.1l-1.3,5.7c0.5,0.3,0.9,0.6,1.4,1
		c0.7-0.6,1.3-1.3,2-1.9l-0.2-11.5c-0.7,0-1.5,0-2.2,0c-5.3-0.4-10.9-4.3-11.6-9.5c-2.3,2.4-4.6,4.8-7,7c-2.3,3.2-4.1,6.8-5.4,10.5
		c-0.3,0.9-0.8,2.2-1.9,2.7c-1.1,0.5-2.3,0-3.3-0.5c-1-0.5-2-1.1-2.9-1.7c-0.5,0.4-1,0.7-1.5,1c-0.9,0.6-1.9,1.2-3,1.4
		c-2.6,0.4-4.8-1.9-5.4-4.2c-0.6-2.4,0-4.8,0.5-7l0.2-1l0.6,0.8c2.4,3,5.3,5.6,8.5,7.8c4.5-3.2,8.8-6.7,12.8-10.5
		c2.2-3.1,4.9-5.9,7.9-8.3l0.8-0.7l-0.1,1.1c-0.3,5.5,5.5,9.7,10.8,10.1c0.7,0,1.4,0.1,2.1,0l-0.1-3.3l1,2.9c0,0.1,0.1,0.2,0.1,0.2
		c4.6-0.5,8.9-2.6,12.9-4.5l1.2-0.6l-0.6,1.2c-2.5,5.4-6.1,10.4-10.5,14.4c1.3,5.5,2.1,11.1,2.5,16.7c0.1,0.2,0.2,0.5,0.3,0.7
		c0.1,0.4,0,0.8-0.2,1.2c0.1,1.1,0.1,2.2,0.1,3.4l-1,0c0-1.1-0.1-2.3-0.1-3.4c-1-1.2-2.1-2.4-3.1-3.5c-2.4-1.2-5.1-2.1-7.9-2.7
		l-1.1,4.7l0-4.2c0-0.2,0-0.4,0-0.6c-0.5-0.1-1-0.2-1.5-0.2c0,1.6-0.2,3.1-0.6,4.7l-0.2,0.7l-0.6-0.4c-0.8-0.6-1.5-1.2-2.3-1.8
		c-1.6-1.3-3.2-2.6-5-3.4c-1.1,0.1-2.1,0.2-3.2,0.4c-1.6,0.3-3.2,0.6-4.7,1c-1.1,1.6-1,3.8-0.7,6.1l0.2,2c0.9,0.6,1.8,1.2,2.6,1.8
		c5.6,3.7,11.3,7.6,15.5,12.9l0.7,0.9l-1.2-0.1c-5.3-0.6-10.8,0.3-15.7,2.5l0.6,5.7l-7-3l0.7-0.5c1.5-1.1,3-2,4.6-2.7l-1.9-16.9
		c-2.6-1.8-5.1-3.6-7.4-5.6c-3.6,1.5-6.9,3.2-9.8,4.7c0.9,3.6,2.8,7,4.6,10.3c1.5,2.7,3,5.5,4,8.4c2,5.8,2.2,12.2,0.5,18l-0.2,0.7
		l-0.6-0.4c-1.7-1.2-3.5-2.4-5.3-3.5c0.8,2.2,1.6,4.5,2.5,6.7L107.9,134.6z M68.6,117.8c3.5,3.9,7.1,7.8,10.6,11.7
		c-1.6-6.4-2.5-13.1-2.8-19.7c-11.6-6.3-22.9-13.2-33.8-20.6C35.9,84.5,28.3,79,23,71.8l-10.6-0.4c9.7,5.7,18.3,13.6,24.8,22.7
		c0.1,0,0.1,0.1,0.2,0.1c0.4,0.3,0.6,0.7,0.4,1.1l-0.3,0.8L37,95.5c-0.1-0.2-0.2-0.3-0.3-0.5c0,0-0.1,0-0.1,0
		c-0.2,0.3-0.2,0.8-0.1,1.3l0.2,0.9c0.9,0.5,1.9,0.9,2.8,1.4c2.6,1.3,5.3,2.6,8,3.9c4.4,2.3,9.3,5.1,13.9,8.8
		c-4.1-4.5-8.2-9-12.3-13.4l0.7-0.7C56.3,103.1,63.6,109.7,68.6,117.8z M97.3,121c2.7,2.3,5,5,7.2,7.7c-0.6-1.6-1.2-3.2-1.7-4.8
		C101,122.9,99.2,121.9,97.3,121z M103.6,123.3c2,1.2,3.9,2.4,5.8,3.7c1.5-5.5,1.3-11.4-0.6-16.8c-1-2.9-2.5-5.6-3.9-8.2
		c-1.9-3.4-3.8-7-4.7-10.9l-0.1-0.4l0.3-0.2c2.9-1.5,6.2-3.2,9.8-4.7c-1.3-1.2-2.6-2.5-3.8-3.9c-3.2-3.8-5.5-8.2-7.7-12.5l-3.5-6.8
		C96.1,83.1,97.3,104,103.6,123.3z M116.9,112.2l3.9,1.7l-0.4-3.7C119.1,110.8,118,111.5,116.9,112.2z M77.3,109.1
		c2.5,1.4,5.1,2.7,7.6,4c-1.4-16.3-0.1-34.1,4.2-54c-0.4-0.2-0.8-0.6-1.2-1L87.8,60c-0.1,1.2-0.7,2.4-1.6,3.4
		C79.8,77.7,76.7,93.5,77.3,109.1z M59,107.2c1.1,1.2,2.2,2.4,3.3,3.6C61.2,109.6,60.1,108.4,59,107.2z M119.4,93l1.7,15.7
		c4.6-2,9.8-3,14.8-2.6c-4-4.8-9.4-8.4-14.6-11.8C120.7,93.9,120,93.5,119.4,93z M30.1,95.1c-0.1,2.2,1.8,4.2,3,5.3
		c0.3,0.3,0.6,0.5,0.9,0.8c0.9,0.8,1.9,1.6,2.7,2.6l-1-5.8C33.9,97,32,96,30.1,95.1z M111.9,86.2c2,1.7,4.1,3.3,6.3,4.8l-0.1-1.1
		c-0.2-2.1-0.4-4.1,0.4-5.9C116.2,84.7,114,85.4,111.9,86.2z M129.5,82.1c1.3,0.8,2.6,1.8,3.8,2.7c0.5,0.4,1.1,0.9,1.7,1.3
		c0.3-1.3,0.4-2.6,0.4-3.9C133.5,82.1,131.5,82.1,129.5,82.1z M147.4,84.8c0.7,0.3,1.3,0.7,2,1.1c0.1,0.1,0.3,0.2,0.4,0.3
		c-0.4-5-1.2-9.9-2.3-14.8c-0.4,0.3-0.8,0.6-1.1,1c-0.3,0.2-0.6,0.5-0.9,0.7l0.1,6.2l-0.9-1.2c-0.6-0.8-1.4-1.6-2.2-2.3
		c-1.1,1.1-2,2.2-2.6,3.4c0.4,0.2,0.7,0.4,1.1,0.5C143.4,81,145.5,82.8,147.4,84.8z M139.2,81.9c2,0.4,3.8,1,5.6,1.7
		c-1.3-1.2-2.7-2.2-4.2-3c-0.3-0.2-0.7-0.3-1-0.5L139.2,81.9z M124.3,81.6c-1.1,0-2.2,0.2-3.1,0.8c1-0.2,2.1-0.4,3.1-0.6
		c0.3,0,0.5-0.1,0.8-0.1C124.8,81.6,124.5,81.6,124.3,81.6z M136.3,81.4c0.6,0.1,1.1,0.2,1.7,0.2c0.1-0.7,0.3-1.4,0.6-2
		c-0.9-0.4-1.8-0.8-2.6-1.3C136.2,79.4,136.3,80.4,136.3,81.4z M135.7,77c0.2,0.2,0.5,0.3,0.7,0.5c0.8,0.5,1.6,0.9,2.4,1.2l1.1-4.8
		c-1.9-1.2-4.1-1.9-6.3-2.3C134.6,73.4,135.3,75.2,135.7,77z M140.9,74.5l-0.5,2.4c0.5-0.6,1-1.2,1.5-1.7
		C141.5,74.9,141.2,74.7,140.9,74.5z M143.2,75.1c0.5,0.4,0.9,0.9,1.4,1.3l0-2.5C144.1,74.3,143.7,74.7,143.2,75.1z M126.2,66.9
		c1.9,1.4,3.4,3.3,4.8,5.1c1.1,1.4,2.2,2.7,3.4,3.9c-0.5-1.6-1.2-3.1-2.1-4.6l-0.5-0.8l1,0.1c2.6,0.2,5.2,1,7.4,2.3l1-4.4
		C136.3,67.9,131.3,67.3,126.2,66.9z M145.3,63.2l0.2,8.6c0.1-0.1,0.2-0.1,0.2-0.2c0.5-0.4,1-0.9,1.5-1.3c0,0,0,0,0,0
		C146.7,67.9,146,65.6,145.3,63.2z M101.2,62c-0.4,1.8-0.7,3.7-0.3,5.6c0.5,1.9,2.3,3.8,4.3,3.5c0.9-0.1,1.7-0.6,2.6-1.2
		c0.4-0.3,0.8-0.5,1.2-0.8C106.1,67,103.5,64.6,101.2,62z M110.7,69c0.8,0.5,1.7,1,2.5,1.5c0.8,0.4,1.7,0.8,2.5,0.5
		c0.8-0.3,1.1-1.3,1.4-2.2c0.9-2.7,2.1-5.2,3.5-7.7C117.5,63.9,114.1,66.5,110.7,69z M145.6,61c0.9,2.8,1.7,5.7,2.4,8.6
		c3.8-3.6,7-7.8,9.3-12.5C153.9,58.7,149.9,60.5,145.6,61z M95,60.4l2.2,4.2l-0.4-1.4c-0.6-1.9-1.2-3.7-1.9-5.5
		C94.9,58.6,95,59.5,95,60.4C95,60.4,95,60.4,95,60.4z M72.1,33.9c-1.6,4.9-3.2,10.4-2.9,15.7c0.3,6.3,3.5,11.8,8.1,13.9
		c2,1,4.1,1.2,5.9,0.6c0.8-0.3,1.6-0.7,2.2-1.3c0.5-1,1-2,1.5-3.1l0.9-1.8c-0.2-0.2-0.3-0.4-0.5-0.6c-0.7-0.9-1.3-1.7-2-2.6
		c0,0.8,0,1.6,0,2.4l0,0.6l-0.6-0.1c-1.9-0.4-2.2-2.9-2.4-3.7l-0.6-4.1C78.2,44.8,75,39.4,72.1,33.9z M94.8,54.5
		c0.7,1.7,1.3,3.5,1.9,5.2c0-4.8,0.4-9.5,1.3-14.2c0.3-1.6,0.7-3.3,1.8-4.7c1.1-1.3,3.1-2.3,4.8-1.4l0.2,0.1l0.1,0.2
		c0.5,1.3,0.9,2.7,1.1,4.1c1.1-6.9,3.1-13.7,5.9-20c-2.3,0.9-4,3-5.7,5.1c-2.2,2.6-4.4,5.3-7.8,5.7c-3.1,0.4-6.4-1.5-8.9-4.9
		c-1.4-1.9-2.5-4.1-3.1-6.3c0,5.6,1.1,11.3,3.1,16.5c0.4,0.9,0.8,1.9,1.2,2.8c0.5,1.2,1,2.3,1.5,3.5c0.1-0.3,0.2-0.6,0.2-0.9l0.3-1
		l0.6,0.9c1.1,1.6,1.2,3.7,1.3,5.3C94.6,51.9,94.7,53.2,94.8,54.5z M90.2,58.5c0,0,0.1,0,0.1,0c0.8,0,1.4-0.7,1.8-1.5L91,54.8
		C90.8,56,90.5,57.3,90.2,58.5z M93.2,56.9l0.8,1.5c-0.1-1.2-0.1-2.4-0.2-3.6c0-0.1-0.1-0.2-0.1-0.3c0,0.5-0.1,1.1-0.2,1.6
		C93.4,56.3,93.3,56.6,93.2,56.9z M85.4,53.3c0.9,1.2,1.8,2.3,2.7,3.5c0.4,0.5,0.8,1,1.3,1.3c0.3-1.5,0.7-3.1,1-4.6L87,47
		C86.2,49.1,85.6,51.2,85.4,53.3z M83,51.7l0.3,2.2c0.2,1.3,0.5,2.1,1,2.5c0-0.9,0-1.9,0.1-2.8C83.9,53,83.5,52.3,83,51.7z
		 M91.4,53.4l1.2,2.3c0.2-1.3,0.2-2.5,0.1-3.8c-0.2-0.4-0.4-0.9-0.6-1.3C91.8,51.5,91.6,52.4,91.4,53.4z M82.7,49.6
		c0.6,0.9,1.2,1.8,1.9,2.6c0.3-2.2,1-4.4,2-6.5l0.4-0.9l3.7,7.2c0.2-1,0.5-2,0.7-3c-3.3-7.3-7.3-14.4-11.9-21L82.7,49.6z M93.6,51.6
		c0,0.1,0,0.1,0.1,0.2c0-0.4,0-0.8-0.1-1.2c-0.1-1.2-0.1-2.5-0.6-3.7c-0.1,0.4-0.2,0.7-0.3,1.1C93.1,49.2,93.4,50.4,93.6,51.6z"/>
</g>
<g>
	<g>
		<path d="M109.4,141.2c1-1.5,2-3.3,3-4.8c1-1.5,2.7-2,4-0.9c0.7,0.6,9.7,8,18.6,8c8,0,13.1-4.9,13.1-10.8c0-7-6-11.4-17.6-16.2
			c-11.9-5-21.2-11.2-21.2-24.7c0-9.1,7-21.5,25.5-21.5c11.6,0,20.4,6,21.5,6.9c0.9,0.6,1.9,2.2,0.7,4c-0.9,1.4-2,3-2.9,4.4
			c-0.9,1.5-2.4,2.2-4.1,1.2c-0.8-0.5-9-5.8-15.7-5.8c-9.8,0-13.1,6.2-13.1,10.5c0,6.6,5.1,10.7,14.8,14.7c13.5,5.5,25,11.9,25,26.1
			c0,12.1-10.8,22-25.9,22c-14.2,0-23.1-7.4-25-9.2C109,144,108.2,143.2,109.4,141.2z"/>
		<path d="M169,73.7c0-1.2,1-2.2,2.2-2.2h7.7c1.3,0,2.2,1,2.2,2.2v32.4h42.6V73.7c0-1.2,0.9-2.2,2.2-2.2h7.7c1.2,0,2.2,1,2.2,2.2v77
			c0,1.2-1,2.2-2.2,2.2h-7.7c-1.3,0-2.2-1-2.2-2.2v-33.6h-42.6v33.6c0,1.2-0.9,2.2-2.2,2.2h-7.7c-1.2,0-2.2-1-2.2-2.2V73.7z"/>
		<path d="M285.4,70.4c23.3,0,41.9,18.7,41.9,42c0,23.3-18.6,41.8-41.9,41.8c-23.3,0-41.8-18.5-41.8-41.8
			C243.6,89.1,262.1,70.4,285.4,70.4z M285.4,142.5c16.6,0,30.2-13.5,30.2-30.1c0-16.5-13.6-30.4-30.2-30.4
			c-16.5,0-30.1,13.8-30.1,30.4C255.3,129,268.9,142.5,285.4,142.5z"/>
		<path d="M335.1,73.7c0-1.2,0.9-2.2,2.2-2.2h26.5c14.3,0,26.1,11.6,26.1,25.7c0,14.4-11.7,26.2-25.9,26.2h-16.9v27.3
			c0,1.2-1,2.2-2.2,2.2h-7.6c-1.3,0-2.2-1-2.2-2.2V73.7z M363.2,112c8,0,14.8-6.5,14.8-14.9c0-7.9-6.7-14-14.8-14h-16V112H363.2z"/>
		<path d="M474,70.4c11.7,0,20.2,4,28.1,10.8c1,0.9,1,2.3,0.1,3.3l-5.1,5.2c-0.8,1-1.9,1-2.9,0c-5.5-4.8-12.9-7.8-20.1-7.8
			c-16.6,0-29.2,14-29.2,30.2s12.7,30.1,29.3,30.1c8.5,0,14.4-3.4,20-7.7c1-0.8,2.1-0.7,2.8-0.1l5.3,5.2c0.9,0.8,0.7,2.3-0.1,3.1
			c-7.9,7.7-17.9,11.3-28.3,11.3c-23.3,0-42-18.5-42-41.8C432,89.1,450.7,70.4,474,70.4z"/>
		<path d="M506.6,149.9l35.7-78.3c0.3-0.7,1.4-1.3,2-1.3h1.2c0.6,0,1.6,0.6,2,1.3l35.5,78.3c0.7,1.5-0.2,3-2,3h-7.3
			c-1.4,0-2.2-0.7-2.7-1.7l-7.2-15.9h-38c-2.3,5.4-4.8,10.6-7.1,15.9c-0.3,0.8-1.3,1.7-2.7,1.7h-7.3
			C506.8,152.9,505.9,151.4,506.6,149.9z M559.3,125.2L545,93.4h-0.6l-14.2,31.9H559.3z"/>
	</g>
	<g>
		<path fill="#DD1F26" d="M412.6,122.3c-1,0-2-0.3-3-0.6c-0.9-0.3-1.8-0.6-2.7-0.6c-0.3,0-0.5,0-0.8,0c-0.8,0-1.5,0-2.2-0.3
			c-0.5-0.3-0.9-0.7-1.3-1.1l0,0c-0.6-0.7-1.3-1.4-1.9-2.2c-1.3-1.7-2.3-3.6-3-5.6c-0.1-0.4-0.2-1.1,0.1-1.5
			c0.2-0.2,0.4-0.3,0.7-0.3l0.4,0l0,0.4c-0.1,0.9,0.2,1.9,0.9,3.1c0.2,0.4,0.5,0.8,0.8,1.1c-0.4-0.6-0.6-1.3-0.9-1.9
			c-0.2-0.5-0.4-1.1-0.5-1.6c-0.2-0.9-0.1-1.7-0.1-2.5c0.1-2,0.4-4,0.7-5.9c0.1-0.7,0.3-1.4,0.7-2.1c0.3-0.5,0.7-0.8,1.1-1.1
			c1.2-1,2.5-2.2,4.1-2.7c1.1-0.4,2.2-0.4,3.3-0.5c1.5,0,3.7,0,5.9,0.5c2,0.5,3.9,1.6,5.4,2.9c1.6,1.5,2.6,3.3,2.9,5.3l-0.7,0.1
			c-0.3-1.8-1.2-3.5-2.7-4.8c-1.4-1.3-3.2-2.3-5.1-2.8c-1.6-0.4-3.4-0.6-5.7-0.5c-1,0-2.1,0.1-3.1,0.4c-0.1,0-0.3,0.1-0.4,0.2
			c-1.3,0.5-2.4,1.5-3.4,2.4c-0.3,0.3-0.7,0.6-1,1c-0.4,0.5-0.5,1.2-0.6,1.8c-0.4,1.9-0.6,3.9-0.7,5.8c0,0.7-0.1,1.5,0.1,2.3
			c0.1,0.5,0.3,1,0.5,1.5c0.6,1.5,1.6,3.3,3.1,4.9c0.7,0.5,1.4,0.9,2.2,1.2c1.9,0.8,4,1.2,6.1,1.3c-0.3-0.3-0.5-0.5-0.7-0.8
			c-0.2-0.2-0.3-0.4-0.5-0.6c-0.6-0.6-1.4-1.1-2.1-1.6c-1.1-0.7-2.2-1.4-2.9-2.6c-0.9-1.4-1-3.3-0.3-5.2c0.3-0.9,0.8-1.8,1.3-2.5
			c-0.6-0.5-1.1-0.9-1.7-1.3l-0.1-0.1c-0.5-0.4-1-0.7-1.4-1.3c-0.8-1.4-0.1-3.1,1.1-4c1.2-0.9,2.7-1,4-1.2c2.1-0.2,4.8-0.3,7.4,0.3
			c0.4,0.1,0.8,0.2,1.2,0.5c0.5,0.4,0.7,1,0.8,1.4c0.7,0.5,1.2,1.1,1.8,1.6c0.8,0.8,1.7,1.8,2.1,3c0.3,0.9,0.2,1.7,0.2,2.6l0,0
			c0,1.4-0.1,2.9-0.1,4.4c0,0.9-0.1,1.8-0.4,2.6c-0.4,1-1.2,1.7-1.8,2.3c-0.6,0.6-1.3,1.2-1.9,1.8l-0.7,0.7
			c-0.8,0.7-1.7,1.6-2.8,1.9C413.4,122.3,413,122.3,412.6,122.3z M412.3,121.6c0.5,0,0.9,0,1.4-0.1c0.5-0.1,0.9-0.4,1.3-0.7
			l-0.3,0.1C413.9,121.3,413.1,121.5,412.3,121.6z M406.3,119.8c2,1.1,4.2,1.4,6.2,1.1C410.4,120.7,408.3,120.5,406.3,119.8z
			 M400.3,115.7c0.3,0.5,0.6,0.9,0.9,1.3c0.6,0.8,1.2,1.5,1.8,2.2l0,0c0.3,0.4,0.6,0.7,1,0.9c0.5,0.3,1.1,0.3,1.8,0.3
			c-0.2-0.1-0.3-0.2-0.5-0.3c-1-0.6-1.9-1.3-2.6-2.1C401.9,117.4,401,116.6,400.3,115.7z M412.8,120.1c0.6,0,1.2,0.1,1.8,0.1l1,0
			c0.2-0.2,0.4-0.4,0.6-0.6l0.7-0.7c0.6-0.6,1.3-1.2,1.9-1.8c0.6-0.6,1.3-1.3,1.7-2.1c0.3-0.7,0.3-1.5,0.3-2.3c0-1.6,0.1-3,0.1-4.4
			v0c0-0.8,0-1.6-0.2-2.4c-0.3-1.1-1.1-2-1.9-2.7c-1.3-1.3-2.9-2.7-4.8-3c-0.6-0.1-1.4-0.1-2.1,0.3c-0.6,0.3-1,0.9-1.4,1.4
			c-0.4,0.6-0.8,1.1-1.2,1.7c-0.4,0.6-0.8,1.1-1.2,1.7c-0.3,0.4-0.6,0.9-1,1.3c0.8,0.7,1.6,1.4,2.4,2.2c0-0.7,0.1-1.3,0.2-2l0-0.2
			l0.2-0.1c1.1-0.4,2.3,0.3,3.3,1.9c0.8,1.2,1.6,2.6,1.8,4.1c0.1,0.8,0,1.6-0.2,2.3c0.1,0.2,0.2,0.4,0.2,0.6l0.2,0.6l-0.6-0.2
			c0,0-0.1,0-0.1,0c-0.3,0.7-0.6,1.4-0.8,2C413.5,118.6,413.1,119.4,412.8,120.1z M406.9,107.1c-0.5,0.7-0.9,1.5-1.2,2.3
			c-0.6,1.7-0.5,3.4,0.2,4.6c0.6,1,1.6,1.7,2.7,2.4c0.8,0.5,1.6,1,2.2,1.7c0.2,0.2,0.4,0.4,0.6,0.6c0.3,0.3,0.5,0.6,0.8,0.9
			c0.3-0.7,0.6-1.4,1-2.2c0.3-0.6,0.6-1.2,0.8-1.9c-0.7-0.3-1.5-0.6-2.2-1c-0.6-0.4-1.4-0.9-1.8-1.7c-0.2-0.5-0.3-1-0.3-1.5
			c0-0.6-0.1-1.2,0-1.7C408.8,108.8,407.8,108,406.9,107.1z M410.4,110.4c0,0.3,0,0.6,0,1c0,0.4,0.1,0.9,0.2,1.2
			c0.3,0.6,0.9,1,1.5,1.3c0.7,0.4,1.3,0.7,2,0.9c0,0,0,0,0-0.1c-0.5-0.9-1.3-1.7-1.9-2.4C411.7,111.7,411,111.1,410.4,110.4z
			 M410.4,109.4c0.8,0.8,1.6,1.6,2.4,2.5c0.6,0.6,1.2,1.2,1.6,1.9c0.1-0.4,0.1-0.9,0-1.3c-0.1-1.4-0.9-2.6-1.6-3.7
			c-0.5-0.7-1.3-1.8-2.3-1.6C410.5,107.8,410.4,108.6,410.4,109.4z M411.2,99.4c-1,0-2,0.1-2.9,0.1c-1.2,0.1-2.6,0.3-3.6,1
			c-0.9,0.7-1.5,2-0.9,3c0.3,0.4,0.7,0.7,1.2,1.1l0.1,0.1c0.6,0.4,1.2,0.8,1.7,1.3c0.3-0.4,0.6-0.9,0.9-1.3c0.4-0.6,0.8-1.1,1.2-1.7
			c0.4-0.6,0.8-1.1,1.2-1.7c0.4-0.5,0.9-1.2,1.6-1.6c0.3-0.2,0.7-0.3,1-0.4C412.2,99.4,411.7,99.4,411.2,99.4z M415.8,100
			c0.2,0.1,0.4,0.2,0.5,0.3C416.2,100.1,416,100,415.8,100z"/>
		<path fill="#DD1F26" d="M414.7,121.4c-0.2,0-0.4,0-0.6-0.1c-0.2-0.1-0.4-0.4-0.4-0.9c0-0.9,1-2.2,1.7-3.3c0.3-0.3,0.5-0.6,0.6-0.9
			c0.9-1.4,1.8-2.8,2.7-4.2c0.1-0.1,0.1-0.2,0.2-0.2c0-0.1,0-0.3,0-0.4c-1.2,1-2.4,2-3.5,3c-1.6,1.3-3.1,2.6-4.7,4
			c-0.2,0.2-0.7,0.6-1.2,0.4l-0.5-0.2l0.3-0.4c2.5-3.3,5.1-6.4,7.9-9.4c-1.6,0.8-3,2-4.4,3.1c-0.6,0.5-1.1,0.9-1.7,1.4
			c-0.4,0.3-0.8,0.7-1.3,1l-1.5,1.2l1-1.7c2-3.4,4.5-6.6,7.3-9.4c-1.6,1.1-3.1,2.3-4.7,3.5c-1.7,1.4-3.9,3.1-5,5.3l-0.9,1.8l0.2-2
			c0.1-1.1,0.5-2.1,1-3.1c-1,1.1-2,2.1-3,3.2c-1.4,1.6-2.9,3.3-4.5,4.8l-0.5-0.5c5.2-6.3,11-12.1,17.3-17.2l0.5,0.6
			c-1.8,1.5-3.6,3-5.3,4.6l0.2,0.3c-1.7,1.5-3.5,3.2-4.4,5.3c1.2-1.5,2.7-2.6,4-3.6c2.1-1.7,4.3-3.3,6.5-4.8
			c-0.2-1.3-0.3-2.6,0.3-3.8l0.3-0.7l0.3,0.7c0.4,0.8,1,1.5,1.7,2.2c0.6,0.6,1.2,1.2,1.6,1.9c0.3,0.6,0.5,1.2,0.7,1.7
			c0.9,2.9,1,6.1,0.3,9.1c-0.2,0.9-0.5,2-1.3,2.7c-0.2,0.2-0.5,0.4-0.8,0.6c-0.3,0.2-0.5,0.4-0.8,0.6c-0.2,0.2-0.4,0.5-0.5,0.8
			c-0.2,0.3-0.4,0.7-0.7,1c-0.5,0.5-1.3,0.8-1.9,1c-0.2,0.1-0.4,0.2-0.6,0.3C416.1,121.1,415.3,121.4,414.7,121.4z M419.6,112.2
			c-0.1,0.1-0.1,0.2-0.2,0.3c-0.9,1.3-1.8,2.7-2.7,4.1c-0.2,0.3-0.4,0.6-0.7,0.9c-0.6,0.9-1.6,2.2-1.6,2.8c0,0.1,0,0.2,0.1,0.2
			c0.3,0.2,1.5-0.4,2-0.6c0.3-0.1,0.5-0.2,0.7-0.3c0.6-0.2,1.2-0.4,1.6-0.8c0.2-0.2,0.4-0.5,0.6-0.8c0.2-0.3,0.4-0.6,0.6-0.9
			c0.3-0.3,0.6-0.5,0.9-0.7c0.3-0.2,0.5-0.3,0.7-0.5c0.6-0.6,0.9-1.5,1.1-2.3c0.6-2.9,0.5-5.9-0.3-8.7c-0.1-0.5-0.3-1.1-0.6-1.6
			c-0.4-0.7-0.9-1.2-1.5-1.8c-0.5-0.5-1-1-1.4-1.7c-0.2,0.7-0.1,1.5,0,2.3c0.3-0.2,0.7-0.4,1.1-0.6l0.4,0.6
			c-0.4,0.4-0.9,0.7-1.3,1.1c0,0.1,0,0.2,0,0.2l0,0.3c0.2,1.1,0.4,2.2,0.5,3.4l0.8-0.3l-0.7,0.7c0.1,0.8,0.1,1.5,0.2,2.3
			c0.6-0.5,1.3-1.1,1.9-1.6c0,0,0,0,0,0l0,0l0.5,0.6c-0.7,0.6-1.3,1.6-1.9,2.5c-0.1,0.2-0.3,0.4-0.4,0.6c0,0.1,0,0.1,0,0.2
			L419.6,112.2z M418.8,108.3c-2.7,2.8-5.3,5.8-7.8,8.9c1.3-1.1,2.6-2.2,3.9-3.3c1.3-1.1,2.6-2.2,4-3.4
			C418.9,109.8,418.9,109.1,418.8,108.3z M418.2,103.9c-2.7,2.6-5.1,5.4-7.1,8.6c0.4-0.4,0.9-0.7,1.3-1.1c1.9-1.5,3.9-3.1,6.3-4l0,0
			C418.6,106.3,418.4,105.1,418.2,103.9L418.2,103.9z"/>
		<path fill="#DD1F26" d="M403,109.6l0.1-1c0.2-1.3,1.2-2.3,2.3-3.2c0.7-0.6,1.4-1.2,2.1-1.8c0.4-0.5,0.8-1,1.2-1.6
			c-0.6,0.2-1.2,0.5-1.7,0.8l-0.3-0.6c0.9-0.5,1.9-0.9,2.8-1.2c0,0,0,0,0,0c0.5-0.8,1.1-1.6,1.1-2.5c0-0.4-0.1-0.7-0.4-0.9
			c0,0-0.1,0-0.1-0.1c-2,1.8-4,3.5-6.1,5.3l-1,0.8c-0.7,0.7-1.4,1.5-2.1,2.2l-1.6,1.8l1-2.2c0.5-1.2,1.2-2.4,2-3.5
			c-0.8,0.9-1.6,1.8-2.3,2.7l-0.1,0.2l-0.2,0c-0.2,0-0.5-0.2-0.6-0.4c-0.2-0.3-0.3-0.6-0.2-0.9l0,0c0.1-0.5,0.4-0.9,0.7-1.2
			c1.8-2.1,3.6-3.9,6.1-4.3l0.1,0c0.1-0.1,0.3-0.2,0.4-0.2c0,0,0,0,0,0c0.6-0.5,1.2-1,1.9-1.4l0.4,0.5c0.2-0.1,0.5-0.1,0.7-0.1
			c0.2,0,0.4,0,0.7,0c0.2-0.1,0.3-0.2,0.5-0.3l0.5,0.6c0,0-0.1,0.1-0.1,0.1c0.4,0.3,0.6,0.8,0.6,1.4c0,0.8-0.3,1.5-0.7,2.1
			c0.6-0.2,1.3-0.4,2-0.5l0.2,0.7c-1.2,0.4-2.2,1.3-3.2,2c-0.5,0.4-1.1,0.9-1.6,1.3c-1.3,1.7-2.8,3.3-4.3,4.8L403,109.6z
			 M399.5,103.6c0,0.1,0,0.3,0.1,0.4c1.2-1.5,2.6-3,4.1-4.3c0.2-0.1,0.3-0.3,0.5-0.4c-1.5,0.7-2.8,2.1-4.1,3.6
			C399.8,103,399.6,103.3,399.5,103.6z M404.1,100.7c-0.7,0.8-1.3,1.7-1.9,2.5c0.4-0.4,0.8-0.8,1.3-1.3L404.1,100.7z M405.7,99
			l-0.8,1.6c1.2-1.1,2.5-2.2,3.8-3.2c-0.8,0.1-1.5,0.4-2.2,0.8C406.3,98.5,406,98.8,405.7,99z"/>
	</g>
</g>
</svg>
